G04*
G04 #@! TF.GenerationSoftware,Altium Limited,Altium Designer,22.9.1 (49)*
G04*
G04 Layer_Color=65535*
%FSLAX44Y44*%
%MOMM*%
G71*
G04*
G04 #@! TF.SameCoordinates,7A9AD83F-BE66-4558-94AD-99BB97DC6B92*
G04*
G04*
G04 #@! TF.FilePolarity,Positive*
G04*
G01*
G75*
%ADD10C,0.2000*%
%ADD11C,0.2500*%
%ADD12C,0.6000*%
%ADD13C,0.5000*%
%ADD14C,0.2540*%
G36*
X627089Y26800D02*
X618011D01*
Y29189D01*
X627089D01*
Y26800D01*
D02*
G37*
G36*
X657667Y20589D02*
X653367D01*
Y21067D01*
X651456D01*
Y21544D01*
X650978D01*
Y22022D01*
X650500D01*
Y22500D01*
X650022D01*
Y22978D01*
X649544D01*
Y23456D01*
X649067D01*
Y23933D01*
X648589D01*
Y24411D01*
X648111D01*
Y24889D01*
X647633D01*
Y25844D01*
X647156D01*
Y26322D01*
X646678D01*
Y26800D01*
X646200D01*
Y27278D01*
X645722D01*
Y27755D01*
X645244D01*
Y28233D01*
X644767D01*
Y29189D01*
X644289D01*
Y29667D01*
X643811D01*
Y30144D01*
X643333D01*
Y30622D01*
X642856D01*
Y31100D01*
X642378D01*
Y31578D01*
X640944D01*
Y21067D01*
X640467D01*
Y20589D01*
X637600D01*
Y30622D01*
Y31100D01*
Y34922D01*
X642856D01*
Y34444D01*
X643811D01*
Y33967D01*
X644767D01*
Y33489D01*
X645244D01*
Y33011D01*
X645722D01*
Y32056D01*
X646200D01*
Y31578D01*
X646678D01*
Y31100D01*
X647156D01*
Y30622D01*
X647633D01*
Y30144D01*
X648111D01*
Y29667D01*
X648589D01*
Y28711D01*
X649067D01*
Y28233D01*
X649544D01*
Y27755D01*
X650022D01*
Y27278D01*
X650500D01*
Y26800D01*
X650978D01*
Y26322D01*
X651456D01*
Y25844D01*
X651933D01*
Y24889D01*
X652411D01*
Y24411D01*
X653367D01*
Y23933D01*
X654322D01*
Y34922D01*
X657667D01*
Y20589D01*
D02*
G37*
G36*
X633778Y32056D02*
X617056D01*
Y24411D01*
X633778D01*
Y21067D01*
X615622D01*
Y21544D01*
X614667D01*
Y22022D01*
X614189D01*
Y22500D01*
X613711D01*
Y23933D01*
X613233D01*
Y32056D01*
X613711D01*
Y33967D01*
X614189D01*
Y34444D01*
X615144D01*
Y34922D01*
X616578D01*
Y35400D01*
X633778D01*
Y32056D01*
D02*
G37*
G36*
X702100Y31578D02*
X684900D01*
Y24411D01*
Y23933D01*
X702100D01*
Y20589D01*
X684900D01*
Y21067D01*
X682989D01*
Y21544D01*
X682511D01*
Y22022D01*
X682033D01*
Y22500D01*
X681556D01*
Y33011D01*
X682033D01*
Y33967D01*
X682511D01*
Y34444D01*
X683467D01*
Y34922D01*
X702100D01*
Y31578D01*
D02*
G37*
G36*
X671522Y34922D02*
X672000D01*
Y34444D01*
X672478D01*
Y33967D01*
X672956D01*
Y33011D01*
X673433D01*
Y31578D01*
X672478D01*
Y30622D01*
Y30144D01*
Y20589D01*
X668656D01*
Y31578D01*
X661011D01*
Y31100D01*
X660533D01*
Y34444D01*
X670089D01*
Y35400D01*
X671522D01*
Y34922D01*
D02*
G37*
G36*
X692544Y15333D02*
X691111D01*
Y15811D01*
X690633D01*
Y15333D01*
X690155D01*
Y16289D01*
X688722D01*
Y15333D01*
X688244D01*
Y16767D01*
X690155D01*
Y16289D01*
X691111D01*
Y16767D01*
X692544D01*
Y15333D01*
D02*
G37*
G36*
X668656Y16289D02*
X667222D01*
Y16767D01*
X668656D01*
Y16289D01*
D02*
G37*
G36*
X652411D02*
X650978D01*
Y16767D01*
X652411D01*
Y16289D01*
D02*
G37*
G36*
X663400D02*
Y15333D01*
X661489D01*
Y16767D01*
X661967D01*
Y15811D01*
X662922D01*
Y16767D01*
X663400D01*
Y16289D01*
D02*
G37*
G36*
X635689Y15333D02*
X633778D01*
Y16289D01*
X634256D01*
Y15811D01*
X635211D01*
Y16289D01*
X634256D01*
Y16767D01*
X635689D01*
Y15333D01*
D02*
G37*
G36*
X699711D02*
X699233D01*
Y16289D01*
X698278D01*
Y15333D01*
X697800D01*
Y15811D01*
Y16289D01*
Y16767D01*
X699711D01*
Y15333D01*
D02*
G37*
G36*
X697322Y16289D02*
Y15333D01*
X696844D01*
Y16767D01*
X697322D01*
Y16289D01*
D02*
G37*
G36*
X696367D02*
X695889D01*
Y15333D01*
X695411D01*
Y16767D01*
X696367D01*
Y16289D01*
D02*
G37*
G36*
X694933Y15333D02*
X693022D01*
Y16289D01*
Y16767D01*
X694933D01*
Y15333D01*
D02*
G37*
G36*
X684900D02*
X684422D01*
Y16289D01*
X682989D01*
Y16767D01*
X684900D01*
Y15333D01*
D02*
G37*
G36*
X683467D02*
X682989D01*
Y15811D01*
X683467D01*
Y15333D01*
D02*
G37*
G36*
X682511Y16767D02*
X680122D01*
Y15811D01*
X682511D01*
Y15333D01*
X679644D01*
Y17244D01*
X682511D01*
Y16767D01*
D02*
G37*
G36*
X677733Y15333D02*
X677255D01*
Y16289D01*
X676300D01*
Y15333D01*
X675822D01*
Y16767D01*
X677733D01*
Y15333D01*
D02*
G37*
G36*
X675344D02*
X673433D01*
Y16767D01*
X675344D01*
Y15333D01*
D02*
G37*
G36*
X672956D02*
X672478D01*
Y16289D01*
Y16767D01*
X672956D01*
Y15333D01*
D02*
G37*
G36*
X672000D02*
X671522D01*
Y15811D01*
Y16289D01*
Y17244D01*
X672000D01*
Y15333D01*
D02*
G37*
G36*
X671044D02*
X669133D01*
Y15811D01*
Y16767D01*
X671044D01*
Y15333D01*
D02*
G37*
G36*
X668656D02*
X667222D01*
Y15811D01*
X668656D01*
Y15333D01*
D02*
G37*
G36*
X666744D02*
X666267D01*
Y16767D01*
X666744D01*
Y15333D01*
D02*
G37*
G36*
X665789D02*
X665311D01*
Y16289D01*
X664355D01*
Y15333D01*
X663878D01*
Y16767D01*
X665789D01*
Y15333D01*
D02*
G37*
G36*
X661011Y16289D02*
Y15811D01*
Y15333D01*
X660533D01*
Y16289D01*
X660056D01*
Y15333D01*
X659578D01*
Y16289D01*
X658622D01*
Y16767D01*
X661011D01*
Y16289D01*
D02*
G37*
G36*
X657667D02*
X658144D01*
Y15333D01*
X657667D01*
Y16289D01*
X656711D01*
Y15333D01*
X656233D01*
Y15811D01*
Y16289D01*
X655755D01*
Y15333D01*
X655278D01*
Y16767D01*
X657667D01*
Y16289D01*
D02*
G37*
G36*
X654800Y15333D02*
X652889D01*
Y16767D01*
X654800D01*
Y15333D01*
D02*
G37*
G36*
X652411D02*
X650978D01*
Y15811D01*
X652411D01*
Y15333D01*
D02*
G37*
G36*
X650500Y16289D02*
X649067D01*
Y15811D01*
X650500D01*
Y15333D01*
X648589D01*
Y16767D01*
X650500D01*
Y16289D01*
D02*
G37*
G36*
X648111Y15811D02*
Y15333D01*
X647633D01*
Y17244D01*
X648111D01*
Y15811D01*
D02*
G37*
G36*
X645244Y16767D02*
X647156D01*
Y16289D01*
Y15811D01*
Y15333D01*
X645244D01*
Y16767D01*
X643811D01*
Y15333D01*
X643333D01*
Y15811D01*
Y16289D01*
Y16767D01*
X642378D01*
Y17244D01*
X645244D01*
Y16767D01*
D02*
G37*
G36*
X640467Y15333D02*
X638555D01*
Y16767D01*
X639989D01*
Y17244D01*
X640467D01*
Y15333D01*
D02*
G37*
G36*
X638078Y15811D02*
Y15333D01*
X637600D01*
Y16289D01*
X636644D01*
Y15333D01*
X636167D01*
Y16767D01*
X638078D01*
Y15811D01*
D02*
G37*
G36*
X632344Y16289D02*
X630911D01*
Y15811D01*
X632344D01*
Y15333D01*
X630433D01*
Y16767D01*
X632344D01*
Y16289D01*
D02*
G37*
G36*
X629955Y15333D02*
X629478D01*
Y16767D01*
X629955D01*
Y15333D01*
D02*
G37*
G36*
X629000Y16289D02*
X627567D01*
Y15333D01*
X627089D01*
Y16767D01*
X629000D01*
Y16289D01*
D02*
G37*
G36*
X626611D02*
X625178D01*
Y15811D01*
X626611D01*
Y15333D01*
X624700D01*
Y16767D01*
X626611D01*
Y16289D01*
D02*
G37*
G36*
X624222D02*
X623744D01*
Y15333D01*
X623267D01*
Y15811D01*
Y16289D01*
Y16767D01*
X624222D01*
Y16289D01*
D02*
G37*
G36*
X622789Y15333D02*
X622311D01*
Y17244D01*
X622789D01*
Y15333D01*
D02*
G37*
G36*
X621833Y16289D02*
X620400D01*
Y15811D01*
X621833D01*
Y15333D01*
X619922D01*
Y16767D01*
X621833D01*
Y16289D01*
D02*
G37*
G36*
X619444D02*
X618489D01*
Y15811D01*
X619444D01*
Y15333D01*
X618011D01*
Y15811D01*
Y16289D01*
Y16767D01*
X619444D01*
Y16289D01*
D02*
G37*
G36*
X617533Y15333D02*
X617056D01*
Y17244D01*
X617533D01*
Y15333D01*
D02*
G37*
G36*
X616578Y16767D02*
X614189D01*
Y15811D01*
X616578D01*
Y15333D01*
X613711D01*
Y17244D01*
X616578D01*
Y16767D01*
D02*
G37*
G36*
X702100Y14856D02*
X700189D01*
Y15333D01*
X701622D01*
Y16289D01*
X700667D01*
Y15811D01*
X700189D01*
Y16767D01*
X702100D01*
Y14856D01*
D02*
G37*
G36*
X687289Y15811D02*
Y15333D01*
Y14856D01*
X685378D01*
Y15333D01*
X686811D01*
Y16289D01*
X685855D01*
Y15811D01*
X685378D01*
Y16767D01*
X687289D01*
Y15811D01*
D02*
G37*
%LPC*%
G36*
X692067Y16289D02*
X691589D01*
Y15811D01*
X692067D01*
Y16289D01*
D02*
G37*
G36*
X694456D02*
X693500D01*
Y15811D01*
X694456D01*
Y16289D01*
D02*
G37*
G36*
X674867D02*
X673911D01*
Y15811D01*
X674867D01*
Y16289D01*
D02*
G37*
G36*
X670567D02*
X669611D01*
Y15811D01*
X670567D01*
Y16289D01*
D02*
G37*
G36*
X654322D02*
X653367D01*
Y15811D01*
X654322D01*
Y16289D01*
D02*
G37*
G36*
X646678D02*
X645722D01*
Y15811D01*
X646678D01*
Y16289D01*
D02*
G37*
G36*
X639989D02*
X639033D01*
Y15811D01*
X639989D01*
Y16289D01*
D02*
G37*
%LPD*%
D10*
X591503Y192769D02*
G03*
X589150Y191340I10996J-20769D01*
G01*
Y152660D02*
G03*
X592561Y150705I13350J19340D01*
G01*
X612443Y150707D02*
G03*
X613500Y192767I-9943J21293D01*
G01*
X200450Y293650D02*
G03*
X187750Y293650I-6350J0D01*
G01*
X665225Y622950D02*
G03*
X665225Y622950I-29225J0D01*
G01*
X189650Y231250D02*
G03*
X202350Y231250I6350J0D01*
G01*
X111500Y95250D02*
G03*
X111500Y95250I-20500J0D01*
G01*
Y145250D02*
G03*
X111500Y145250I-20500J0D01*
G01*
Y195250D02*
G03*
X111500Y195250I-20500J0D01*
G01*
X347925Y660250D02*
G03*
X347925Y660250I-29225J0D01*
G01*
Y560250D02*
G03*
X347925Y560250I-29225J0D01*
G01*
X347525Y460250D02*
G03*
X347525Y460250I-29225J0D01*
G01*
X347925Y360250D02*
G03*
X347925Y360250I-29225J0D01*
G01*
Y260250D02*
G03*
X347925Y260250I-29225J0D01*
G01*
Y160250D02*
G03*
X347925Y160250I-29225J0D01*
G01*
Y60250D02*
G03*
X347925Y60250I-29225J0D01*
G01*
X589150Y152660D02*
Y191340D01*
X208500Y77250D02*
Y80000D01*
X168500Y77250D02*
Y80000D01*
X208500Y100500D02*
Y103250D01*
X168500Y100500D02*
Y103250D01*
Y77250D02*
X208500D01*
X168500Y103250D02*
X208500D01*
X220600Y293650D02*
Y490650D01*
X167600Y293650D02*
Y490650D01*
X200450Y293650D02*
X220600D01*
X167600D02*
X187750D01*
X167600Y490650D02*
X220600D01*
X384500Y348250D02*
X447500D01*
X384500Y372250D02*
X447500D01*
X384500Y366990D02*
Y372250D01*
X447500Y348250D02*
Y353510D01*
X384500Y348250D02*
Y353510D01*
X447500Y366990D02*
Y372250D01*
X187600Y619250D02*
Y721250D01*
X192600Y619250D02*
Y721250D01*
X145600Y619250D02*
Y721250D01*
Y619250D02*
X192600D01*
X145600Y721250D02*
X192600D01*
X215650Y634700D02*
Y705800D01*
X256350Y634700D02*
Y705800D01*
X215650Y634700D02*
X256350D01*
X215650Y705800D02*
X256350D01*
X578000Y578750D02*
Y641750D01*
X554000Y578750D02*
Y641750D01*
Y578750D02*
X559260D01*
X572740Y641750D02*
X578000D01*
X572740Y578750D02*
X578000D01*
X554000Y641750D02*
X559260D01*
X155850Y539900D02*
X226950D01*
X155850Y580600D02*
X226950D01*
Y539900D02*
Y580600D01*
X155850Y539900D02*
Y580600D01*
X66501Y720252D02*
X123501D01*
X48501D02*
X58001D01*
X66501D02*
X67001Y726252D01*
X57501D02*
X58001Y720252D01*
X57501Y726252D02*
X67001D01*
X48501Y620251D02*
X99501D01*
X48501D02*
Y720252D01*
X106501Y620251D02*
X123501D01*
X106501D02*
X107251Y614251D01*
X98751D02*
X99501Y620251D01*
X98751Y614251D02*
X107251D01*
X123501Y620251D02*
X123501Y720252D01*
X583500Y512750D02*
X748500D01*
X583500Y287750D02*
Y512750D01*
Y287750D02*
X748500D01*
Y512750D01*
X493200Y607250D02*
X518800D01*
X506000Y646250D02*
Y662630D01*
Y577870D02*
Y594250D01*
X492500D02*
X519500D01*
Y646250D01*
X492500D02*
X519500D01*
X492500Y594250D02*
Y646250D01*
X629650Y666130D02*
X642350D01*
X636000Y659780D02*
Y672480D01*
X558000Y408750D02*
Y471750D01*
X534000Y408750D02*
Y471750D01*
Y408750D02*
X539260D01*
X552740Y471750D02*
X558000D01*
X552740Y408750D02*
X558000D01*
X534000Y471750D02*
X539260D01*
X513000Y408750D02*
Y471750D01*
X489000Y408750D02*
Y471750D01*
Y408750D02*
X494260D01*
X507740Y471750D02*
X513000D01*
X507740Y408750D02*
X513000D01*
X489000Y471750D02*
X494260D01*
X169500Y129250D02*
Y231250D01*
X222500Y129250D02*
Y231250D01*
X169500D02*
X189650D01*
X202350D02*
X222500D01*
X169500Y129250D02*
X222500D01*
X39000Y220250D02*
X139000D01*
X39000D02*
X51100D01*
Y223050D01*
X49400Y224750D02*
X51100Y223050D01*
X49400Y224750D02*
Y226250D01*
X60400D01*
Y224750D02*
Y226250D01*
X58700Y223050D02*
X60400Y224750D01*
X58700Y220250D02*
Y223050D01*
Y220250D02*
X123500D01*
Y223050D01*
X121800Y224750D02*
X123500Y223050D01*
X121800Y224750D02*
Y226250D01*
X132800D01*
Y224750D02*
Y226250D01*
X131100Y223050D02*
X132800Y224750D01*
X131100Y220250D02*
Y223050D01*
Y220250D02*
X139000D01*
X48358Y70250D02*
Y220250D01*
X61442Y70250D02*
Y220250D01*
X118192Y70250D02*
Y220250D01*
X125000Y107290D02*
X139000Y112386D01*
X125000Y83209D02*
Y107290D01*
Y83209D02*
X139000Y78114D01*
Y112386D01*
X125000Y157290D02*
X139000Y162386D01*
X125000Y133209D02*
Y157290D01*
Y133209D02*
X139000Y128114D01*
Y162386D01*
X125000Y207290D02*
X139000Y212386D01*
X125000Y183210D02*
Y207290D01*
Y183210D02*
X139000Y178114D01*
Y212386D01*
X58700Y70250D02*
Y73050D01*
X51100Y70250D02*
Y73050D01*
X49400Y74750D02*
X51100Y73050D01*
X49400Y74750D02*
Y76250D01*
X60400D01*
Y74750D02*
Y76250D01*
X58700Y73050D02*
X60400Y74750D01*
X39000Y70250D02*
X139000D01*
X39000D02*
Y220250D01*
X139000Y70250D02*
Y220250D01*
X131100Y70250D02*
Y73050D01*
X132800Y74750D01*
Y76250D01*
X121800D02*
X132800D01*
X121800Y74750D02*
Y76250D01*
Y74750D02*
X123500Y73050D01*
Y70250D02*
Y73050D01*
X486500Y108750D02*
Y171750D01*
X510500Y108750D02*
Y171750D01*
X505240D02*
X510500D01*
X486500Y108750D02*
X491760D01*
X486500Y171750D02*
X491760D01*
X505240Y108750D02*
X510500D01*
X534000D02*
Y171750D01*
X558000Y108750D02*
Y171750D01*
X552740D02*
X558000D01*
X534000Y108750D02*
X539260D01*
X534000Y171750D02*
X539260D01*
X552740Y108750D02*
X558000D01*
Y258750D02*
Y321750D01*
X534000Y258750D02*
Y321750D01*
Y258750D02*
X539260D01*
X552740Y321750D02*
X558000D01*
X552740Y258750D02*
X558000D01*
X534000Y321750D02*
X539260D01*
X513000Y258750D02*
Y321750D01*
X489000Y258750D02*
Y321750D01*
Y258750D02*
X494260D01*
X507740Y321750D02*
X513000D01*
X507740Y258750D02*
X513000D01*
X489000Y321750D02*
X494260D01*
X384500Y648250D02*
X447500D01*
X384500Y672250D02*
X447500D01*
X384500Y666990D02*
Y672250D01*
X447500Y648250D02*
Y653510D01*
X384500Y648250D02*
Y653510D01*
X447500Y666990D02*
Y672250D01*
X275520Y653900D02*
Y666600D01*
X269170Y660250D02*
X281870D01*
X384500Y548250D02*
X447500D01*
X384500Y572250D02*
X447500D01*
X384500Y566990D02*
Y572250D01*
X447500Y548250D02*
Y553510D01*
X384500Y548250D02*
Y553510D01*
X447500Y566990D02*
Y572250D01*
X672001Y205252D02*
X729001D01*
X654001D02*
X663501D01*
X672001D02*
X672501Y211252D01*
X663001D02*
X663501Y205252D01*
X663001Y211252D02*
X672501D01*
X654001Y105251D02*
X705001D01*
X654001D02*
Y205252D01*
X712001Y105251D02*
X729000D01*
X712001D02*
X712750Y99251D01*
X704250D02*
X705001Y105251D01*
X704250Y99251D02*
X712750D01*
X729000Y105251D02*
X729001Y205252D01*
X275520Y553900D02*
Y566600D01*
X269170Y560250D02*
X281870D01*
X384500Y448250D02*
X447500D01*
X384500Y472250D02*
X447500D01*
X384500Y466990D02*
Y472250D01*
X447500Y448250D02*
Y453510D01*
X384500Y448250D02*
Y453510D01*
X447500Y466990D02*
Y472250D01*
X275120Y453900D02*
Y466600D01*
X268770Y460250D02*
X281470D01*
X275520Y353900D02*
Y366600D01*
X269170Y360250D02*
X281870D01*
X384500Y248250D02*
X447500D01*
X384500Y272250D02*
X447500D01*
X384500Y266990D02*
Y272250D01*
X447500Y248250D02*
Y253510D01*
X384500Y248250D02*
Y253510D01*
X447500Y266990D02*
Y272250D01*
X134000Y282750D02*
Y552750D01*
X49000Y282750D02*
X134000D01*
X49000D02*
Y552750D01*
X134000D01*
X275520Y253900D02*
Y266600D01*
X269170Y260250D02*
X281870D01*
X384500Y148250D02*
X447500D01*
X384500Y172250D02*
X447500D01*
X384500Y166990D02*
Y172250D01*
X447500Y148250D02*
Y153510D01*
X384500Y148250D02*
Y153510D01*
X447500Y166990D02*
Y172250D01*
X275520Y153900D02*
Y166600D01*
X269170Y160250D02*
X281870D01*
X384500Y48250D02*
X447500D01*
X384500Y72250D02*
X447500D01*
X384500Y66990D02*
Y72250D01*
X447500Y48250D02*
Y53510D01*
X384500Y48250D02*
Y53510D01*
X447500Y66990D02*
Y72250D01*
X275520Y53900D02*
Y66600D01*
X269170Y60250D02*
X281870D01*
X96610Y44500D02*
X86613D01*
X81615Y49499D01*
X86613Y54497D01*
X96610D01*
X89113D01*
Y44500D01*
X96610Y59495D02*
Y64494D01*
Y61994D01*
X81615D01*
X84114Y59495D01*
D11*
X603750Y210500D02*
G03*
X603750Y210500I-1250J0D01*
G01*
X165500Y90250D02*
G03*
X165500Y90250I-1250J0D01*
G01*
X233450Y290250D02*
G03*
X233450Y290250I-1250J0D01*
G01*
X167250Y727750D02*
G03*
X167250Y727750I-1250J0D01*
G01*
X237645Y628820D02*
G03*
X237645Y628820I-1250J0D01*
G01*
X234080Y560645D02*
G03*
X234080Y560645I-1250J0D01*
G01*
X667250Y518750D02*
G03*
X667250Y518750I-1250J0D01*
G01*
X159150Y231350D02*
G03*
X159150Y231350I-1250J0D01*
G01*
D12*
X213600Y303650D02*
G03*
X213600Y303650I-3000J0D01*
G01*
X182500Y221250D02*
G03*
X182500Y221250I-3000J0D01*
G01*
D13*
X0Y780000D02*
X794750D01*
X0Y3750D02*
Y780000D01*
X795000Y2250D02*
Y779750D01*
X1500Y2250D02*
X795000D01*
D14*
X600707Y223161D02*
Y233318D01*
X598167Y235857D01*
X593089D01*
X590550Y233318D01*
Y223161D01*
X593089Y220622D01*
X598167D01*
X595628Y225700D02*
X600707Y220622D01*
X598167D02*
X600707Y223161D01*
X605785Y220622D02*
X610863D01*
X608324D01*
Y235857D01*
X605785Y233318D01*
X311290Y751368D02*
Y761525D01*
X316368Y766603D01*
X321447Y761525D01*
Y751368D01*
Y758986D01*
X311290D01*
X326525Y761525D02*
Y753908D01*
X329064Y751368D01*
X336682D01*
Y761525D01*
X344299Y764064D02*
Y761525D01*
X341760D01*
X346838D01*
X344299D01*
Y753908D01*
X346838Y751368D01*
X356995D02*
X362074D01*
X364613Y753908D01*
Y758986D01*
X362074Y761525D01*
X356995D01*
X354456Y758986D01*
Y753908D01*
X356995Y751368D01*
X369691D02*
Y761525D01*
X372230D01*
X374770Y758986D01*
Y751368D01*
Y758986D01*
X377309Y761525D01*
X379848Y758986D01*
Y751368D01*
X387465Y761525D02*
X392544D01*
X395083Y758986D01*
Y751368D01*
X387465D01*
X384926Y753908D01*
X387465Y756447D01*
X395083D01*
X402700Y764064D02*
Y761525D01*
X400161D01*
X405240D01*
X402700D01*
Y753908D01*
X405240Y751368D01*
X412857D02*
X417935D01*
X415396D01*
Y761525D01*
X412857D01*
X435710D02*
X428092D01*
X425553Y758986D01*
Y753908D01*
X428092Y751368D01*
X435710D01*
X456023Y766603D02*
Y751368D01*
X461101Y756447D01*
X466180Y751368D01*
Y766603D01*
X473797Y761525D02*
X478876D01*
X481415Y758986D01*
Y751368D01*
X473797D01*
X471258Y753908D01*
X473797Y756447D01*
X481415D01*
X489033Y764064D02*
Y761525D01*
X486493D01*
X491572D01*
X489033D01*
Y753908D01*
X491572Y751368D01*
X506807D02*
X501728D01*
X499189Y753908D01*
Y758986D01*
X501728Y761525D01*
X506807D01*
X509346Y758986D01*
Y756447D01*
X499189D01*
X514424Y761525D02*
Y751368D01*
Y756447D01*
X516964Y758986D01*
X519503Y761525D01*
X522042D01*
X544894Y751368D02*
Y766603D01*
X552512D01*
X555051Y764064D01*
Y758986D01*
X552512Y756447D01*
X544894D01*
X560130Y761525D02*
Y753908D01*
X562669Y751368D01*
X570286D01*
Y761525D01*
X575365Y751368D02*
Y761525D01*
X577904D01*
X580443Y758986D01*
Y751368D01*
Y758986D01*
X582982Y761525D01*
X585521Y758986D01*
Y751368D01*
X590600Y746290D02*
Y761525D01*
X598217D01*
X600756Y758986D01*
Y753908D01*
X598217Y751368D01*
X590600D01*
X631227Y764064D02*
X628687Y766603D01*
X623609D01*
X621070Y764064D01*
Y753908D01*
X623609Y751368D01*
X628687D01*
X631227Y753908D01*
X638844Y751368D02*
X643922D01*
X646462Y753908D01*
Y758986D01*
X643922Y761525D01*
X638844D01*
X636305Y758986D01*
Y753908D01*
X638844Y751368D01*
X651540D02*
Y761525D01*
X659157D01*
X661697Y758986D01*
Y751368D01*
X669314Y764064D02*
Y761525D01*
X666775D01*
X671853D01*
X669314D01*
Y753908D01*
X671853Y751368D01*
X679471Y761525D02*
Y751368D01*
Y756447D01*
X682010Y758986D01*
X684549Y761525D01*
X687088D01*
X697245Y751368D02*
X702324D01*
X704863Y753908D01*
Y758986D01*
X702324Y761525D01*
X697245D01*
X694706Y758986D01*
Y753908D01*
X697245Y751368D01*
X709941D02*
X715019D01*
X712480D01*
Y766603D01*
X709941D01*
X722637Y751368D02*
X727715D01*
X725176D01*
Y766603D01*
X722637D01*
X742950Y751368D02*
X737872D01*
X735333Y753908D01*
Y758986D01*
X737872Y761525D01*
X742950D01*
X745490Y758986D01*
Y756447D01*
X735333D01*
X750568Y761525D02*
Y751368D01*
Y756447D01*
X753107Y758986D01*
X755646Y761525D01*
X758185D01*
X147828Y516273D02*
Y503577D01*
X150367Y501038D01*
X155445D01*
X157985Y503577D01*
Y516273D01*
X163063D02*
Y501038D01*
X173220D01*
X178298D02*
Y516273D01*
X188455Y501038D01*
Y516273D01*
X203690Y501038D02*
X193533D01*
X203690Y511195D01*
Y513734D01*
X201151Y516273D01*
X196072D01*
X193533Y513734D01*
X208768D02*
X211308Y516273D01*
X216386D01*
X218925Y513734D01*
Y503577D01*
X216386Y501038D01*
X211308D01*
X208768Y503577D01*
Y513734D01*
X224003D02*
X226542Y516273D01*
X231621D01*
X234160Y513734D01*
Y503577D01*
X231621Y501038D01*
X226542D01*
X224003Y503577D01*
Y513734D01*
X239238D02*
X241778Y516273D01*
X246856D01*
X249395Y513734D01*
Y511195D01*
X246856Y508656D01*
X244317D01*
X246856D01*
X249395Y506116D01*
Y503577D01*
X246856Y501038D01*
X241778D01*
X239238Y503577D01*
X145288Y753001D02*
Y737766D01*
X155445D01*
X160523D02*
Y753001D01*
X165601Y747923D01*
X170680Y753001D01*
Y737766D01*
X175758Y753001D02*
X185915D01*
Y750462D01*
X175758Y740305D01*
Y737766D01*
X190993Y750462D02*
X193532Y753001D01*
X198611D01*
X201150Y750462D01*
Y747923D01*
X198611Y745384D01*
X201150Y742844D01*
Y740305D01*
X198611Y737766D01*
X193532D01*
X190993Y740305D01*
Y742844D01*
X193532Y745384D01*
X190993Y747923D01*
Y750462D01*
X193532Y745384D02*
X198611D01*
X206228Y750462D02*
X208768Y753001D01*
X213846D01*
X216385Y750462D01*
Y740305D01*
X213846Y737766D01*
X208768D01*
X206228Y740305D01*
Y750462D01*
X231620Y753001D02*
X226542Y750462D01*
X221463Y745384D01*
Y740305D01*
X224002Y737766D01*
X229081D01*
X231620Y740305D01*
Y742844D01*
X229081Y745384D01*
X221463D01*
X149860Y241704D02*
Y256939D01*
X160017Y241704D01*
Y256939D01*
X175252D02*
X165095D01*
Y241704D01*
X175252D01*
X165095Y249321D02*
X170173D01*
X190487Y256939D02*
X180330D01*
Y249321D01*
X185408Y251861D01*
X187948D01*
X190487Y249321D01*
Y244243D01*
X187948Y241704D01*
X182869D01*
X180330Y244243D01*
X205722Y256939D02*
X195565D01*
Y249321D01*
X200644Y251861D01*
X203183D01*
X205722Y249321D01*
Y244243D01*
X203183Y241704D01*
X198104D01*
X195565Y244243D01*
X220957Y256939D02*
X210800D01*
Y249321D01*
X215879Y251861D01*
X218418D01*
X220957Y249321D01*
Y244243D01*
X218418Y241704D01*
X213340D01*
X210800Y244243D01*
X583946Y534058D02*
Y549293D01*
X591563D01*
X594103Y546754D01*
Y541675D01*
X591563Y539136D01*
X583946D01*
X589024D02*
X594103Y534058D01*
X606799D02*
X601720D01*
X599181Y536597D01*
Y541675D01*
X601720Y544215D01*
X606799D01*
X609338Y541675D01*
Y539136D01*
X599181D01*
X614416Y534058D02*
X619495D01*
X616955D01*
Y549293D01*
X614416D01*
X629651Y544215D02*
X634730D01*
X637269Y541675D01*
Y534058D01*
X629651D01*
X627112Y536597D01*
X629651Y539136D01*
X637269D01*
X642347Y544215D02*
Y536597D01*
X644886Y534058D01*
X652504D01*
Y531519D01*
X649965Y528980D01*
X647426D01*
X652504Y534058D02*
Y544215D01*
X654304Y226210D02*
Y241445D01*
X661921D01*
X664461Y238906D01*
Y233827D01*
X661921Y231288D01*
X654304D01*
X659382D02*
X664461Y226210D01*
X677157D02*
X672078D01*
X669539Y228749D01*
Y233827D01*
X672078Y236367D01*
X677157D01*
X679696Y233827D01*
Y231288D01*
X669539D01*
X684774Y226210D02*
X689853D01*
X687313D01*
Y241445D01*
X684774D01*
X700009Y236367D02*
X705088D01*
X707627Y233827D01*
Y226210D01*
X700009D01*
X697470Y228749D01*
X700009Y231288D01*
X707627D01*
X712705Y236367D02*
Y228749D01*
X715244Y226210D01*
X722862D01*
Y223671D01*
X720323Y221132D01*
X717784D01*
X722862Y226210D02*
Y236367D01*
X365506Y681124D02*
Y696359D01*
X373124D01*
X375663Y693820D01*
Y688742D01*
X373124Y686202D01*
X365506D01*
X370584D02*
X375663Y681124D01*
X380741D02*
X385819D01*
X383280D01*
Y696359D01*
X380741Y693820D01*
X401054Y681124D02*
Y696359D01*
X393437Y688742D01*
X403594D01*
X365506Y581048D02*
Y596283D01*
X373124D01*
X375663Y593744D01*
Y588666D01*
X373124Y586126D01*
X365506D01*
X370584D02*
X375663Y581048D01*
X380741D02*
X385819D01*
X383280D01*
Y596283D01*
X380741Y593744D01*
X393437D02*
X395976Y596283D01*
X401054D01*
X403594Y593744D01*
Y591205D01*
X401054Y588666D01*
X398515D01*
X401054D01*
X403594Y586126D01*
Y583587D01*
X401054Y581048D01*
X395976D01*
X393437Y583587D01*
X365506Y481226D02*
Y496461D01*
X373124D01*
X375663Y493922D01*
Y488843D01*
X373124Y486304D01*
X365506D01*
X370584D02*
X375663Y481226D01*
X380741D02*
X385819D01*
X383280D01*
Y496461D01*
X380741Y493922D01*
X403594Y481226D02*
X393437D01*
X403594Y491383D01*
Y493922D01*
X401054Y496461D01*
X395976D01*
X393437Y493922D01*
X365506Y381150D02*
Y396385D01*
X373124D01*
X375663Y393846D01*
Y388768D01*
X373124Y386228D01*
X365506D01*
X370584D02*
X375663Y381150D01*
X380741D02*
X385819D01*
X383280D01*
Y396385D01*
X380741Y393846D01*
X393437Y381150D02*
X398515D01*
X395976D01*
Y396385D01*
X393437Y393846D01*
X365506Y281074D02*
Y296309D01*
X373124D01*
X375663Y293770D01*
Y288692D01*
X373124Y286152D01*
X365506D01*
X370584D02*
X375663Y281074D01*
X380741D02*
X385819D01*
X383280D01*
Y296309D01*
X380741Y293770D01*
X393437D02*
X395976Y296309D01*
X401054D01*
X403594Y293770D01*
Y283613D01*
X401054Y281074D01*
X395976D01*
X393437Y283613D01*
Y293770D01*
X365506Y180998D02*
Y196233D01*
X373124D01*
X375663Y193694D01*
Y188615D01*
X373124Y186076D01*
X365506D01*
X370584D02*
X375663Y180998D01*
X380741Y183537D02*
X383280Y180998D01*
X388359D01*
X390898Y183537D01*
Y193694D01*
X388359Y196233D01*
X383280D01*
X380741Y193694D01*
Y191155D01*
X383280Y188615D01*
X390898D01*
X365506Y81176D02*
Y96411D01*
X373124D01*
X375663Y93872D01*
Y88793D01*
X373124Y86254D01*
X365506D01*
X370584D02*
X375663Y81176D01*
X380741Y93872D02*
X383280Y96411D01*
X388359D01*
X390898Y93872D01*
Y91333D01*
X388359Y88793D01*
X390898Y86254D01*
Y83715D01*
X388359Y81176D01*
X383280D01*
X380741Y83715D01*
Y86254D01*
X383280Y88793D01*
X380741Y91333D01*
Y93872D01*
X383280Y88793D02*
X388359D01*
X555244Y670964D02*
Y686199D01*
X562862D01*
X565401Y683660D01*
Y678581D01*
X562862Y676042D01*
X555244D01*
X560322D02*
X565401Y670964D01*
X570479Y686199D02*
X580636D01*
Y683660D01*
X570479Y673503D01*
Y670964D01*
X535178Y200810D02*
Y216045D01*
X542795D01*
X545335Y213506D01*
Y208428D01*
X542795Y205888D01*
X535178D01*
X540256D02*
X545335Y200810D01*
X560570Y216045D02*
X555491Y213506D01*
X550413Y208428D01*
Y203349D01*
X552952Y200810D01*
X558031D01*
X560570Y203349D01*
Y205888D01*
X558031Y208428D01*
X550413D01*
X487680Y200810D02*
Y216045D01*
X495298D01*
X497837Y213506D01*
Y208428D01*
X495298Y205888D01*
X487680D01*
X492758D02*
X497837Y200810D01*
X513072Y216045D02*
X502915D01*
Y208428D01*
X507993Y210967D01*
X510533D01*
X513072Y208428D01*
Y203349D01*
X510533Y200810D01*
X505454D01*
X502915Y203349D01*
X490220Y350924D02*
Y366159D01*
X497837D01*
X500377Y363620D01*
Y358541D01*
X497837Y356002D01*
X490220D01*
X495298D02*
X500377Y350924D01*
X513073D02*
Y366159D01*
X505455Y358541D01*
X515612D01*
X490220Y500784D02*
Y516019D01*
X497837D01*
X500377Y513480D01*
Y508401D01*
X497837Y505862D01*
X490220D01*
X495298D02*
X500377Y500784D01*
X505455Y513480D02*
X507994Y516019D01*
X513073D01*
X515612Y513480D01*
Y510941D01*
X513073Y508401D01*
X510533D01*
X513073D01*
X515612Y505862D01*
Y503323D01*
X513073Y500784D01*
X507994D01*
X505455Y503323D01*
X535178Y350924D02*
Y366159D01*
X542795D01*
X545335Y363620D01*
Y358541D01*
X542795Y356002D01*
X535178D01*
X540256D02*
X545335Y350924D01*
X560570D02*
X550413D01*
X560570Y361081D01*
Y363620D01*
X558031Y366159D01*
X552952D01*
X550413Y363620D01*
X535178Y500784D02*
Y516019D01*
X542795D01*
X545335Y513480D01*
Y508401D01*
X542795Y505862D01*
X535178D01*
X540256D02*
X545335Y500784D01*
X550413D02*
X555491D01*
X552952D01*
Y516019D01*
X550413Y513480D01*
X48768Y736242D02*
Y751477D01*
X56385D01*
X58925Y748938D01*
Y743859D01*
X56385Y741320D01*
X48768D01*
X71621Y751477D02*
X66542D01*
X64003Y748938D01*
Y738781D01*
X66542Y736242D01*
X71621D01*
X74160Y738781D01*
Y748938D01*
X71621Y751477D01*
X79238D02*
Y736242D01*
X84317Y741320D01*
X89395Y736242D01*
Y751477D01*
X49276Y562506D02*
Y577741D01*
X56894D01*
X59433Y575202D01*
Y570123D01*
X56894Y567584D01*
X49276D01*
X64511Y562506D02*
X69589D01*
X67050D01*
Y577741D01*
X64511Y575202D01*
X608076Y696359D02*
Y681124D01*
X618233D01*
X633468Y696359D02*
X623311D01*
Y681124D01*
X633468D01*
X623311Y688742D02*
X628389D01*
X638546Y696359D02*
Y681124D01*
X646164D01*
X648703Y683663D01*
Y693820D01*
X646164Y696359D01*
X638546D01*
X653781Y693820D02*
X656320Y696359D01*
X661399D01*
X663938Y693820D01*
Y691281D01*
X661399Y688742D01*
X663938Y686202D01*
Y683663D01*
X661399Y681124D01*
X656320D01*
X653781Y683663D01*
Y686202D01*
X656320Y688742D01*
X653781Y691281D01*
Y693820D01*
X656320Y688742D02*
X661399D01*
X270764Y713631D02*
Y698396D01*
X280921D01*
X296156Y713631D02*
X285999D01*
Y698396D01*
X296156D01*
X285999Y706013D02*
X291077D01*
X301234Y713631D02*
Y698396D01*
X308852D01*
X311391Y700935D01*
Y711092D01*
X308852Y713631D01*
X301234D01*
X316469D02*
X326626D01*
Y711092D01*
X316469Y700935D01*
Y698396D01*
X270764Y613555D02*
Y598320D01*
X280921D01*
X296156Y613555D02*
X285999D01*
Y598320D01*
X296156D01*
X285999Y605938D02*
X291077D01*
X301234Y613555D02*
Y598320D01*
X308852D01*
X311391Y600859D01*
Y611016D01*
X308852Y613555D01*
X301234D01*
X326626D02*
X321548Y611016D01*
X316469Y605938D01*
Y600859D01*
X319008Y598320D01*
X324087D01*
X326626Y600859D01*
Y603398D01*
X324087Y605938D01*
X316469D01*
X270256Y513479D02*
Y498244D01*
X280413D01*
X295648Y513479D02*
X285491D01*
Y498244D01*
X295648D01*
X285491Y505862D02*
X290569D01*
X300726Y513479D02*
Y498244D01*
X308344D01*
X310883Y500783D01*
Y510940D01*
X308344Y513479D01*
X300726D01*
X326118D02*
X315961D01*
Y505862D01*
X321040Y508401D01*
X323579D01*
X326118Y505862D01*
Y500783D01*
X323579Y498244D01*
X318500D01*
X315961Y500783D01*
X270764Y413657D02*
Y398422D01*
X280921D01*
X296156Y413657D02*
X285999D01*
Y398422D01*
X296156D01*
X285999Y406040D02*
X291077D01*
X301234Y413657D02*
Y398422D01*
X308852D01*
X311391Y400961D01*
Y411118D01*
X308852Y413657D01*
X301234D01*
X324087Y398422D02*
Y413657D01*
X316469Y406040D01*
X326626D01*
X270764Y313581D02*
Y298346D01*
X280921D01*
X296156Y313581D02*
X285999D01*
Y298346D01*
X296156D01*
X285999Y305963D02*
X291077D01*
X301234Y313581D02*
Y298346D01*
X308852D01*
X311391Y300885D01*
Y311042D01*
X308852Y313581D01*
X301234D01*
X316469Y311042D02*
X319008Y313581D01*
X324087D01*
X326626Y311042D01*
Y308503D01*
X324087Y305963D01*
X321548D01*
X324087D01*
X326626Y303424D01*
Y300885D01*
X324087Y298346D01*
X319008D01*
X316469Y300885D01*
X270764Y213505D02*
Y198270D01*
X280921D01*
X296156Y213505D02*
X285999D01*
Y198270D01*
X296156D01*
X285999Y205888D02*
X291077D01*
X301234Y213505D02*
Y198270D01*
X308852D01*
X311391Y200809D01*
Y210966D01*
X308852Y213505D01*
X301234D01*
X326626Y198270D02*
X316469D01*
X326626Y208427D01*
Y210966D01*
X324087Y213505D01*
X319008D01*
X316469Y210966D01*
X270764Y113683D02*
Y98448D01*
X280921D01*
X296156Y113683D02*
X285999D01*
Y98448D01*
X296156D01*
X285999Y106066D02*
X291077D01*
X301234Y113683D02*
Y98448D01*
X308852D01*
X311391Y100987D01*
Y111144D01*
X308852Y113683D01*
X301234D01*
X316469Y98448D02*
X321548D01*
X319008D01*
Y113683D01*
X316469Y111144D01*
X50797Y250081D02*
X45718D01*
X48257D01*
Y237385D01*
X45718Y234846D01*
X43179D01*
X40640Y237385D01*
X55875Y234846D02*
X60953D01*
X58414D01*
Y250081D01*
X55875Y247542D01*
X493014Y707535D02*
Y692300D01*
X500631D01*
X503171Y694839D01*
Y704996D01*
X500631Y707535D01*
X493014D01*
X508249Y692300D02*
X513327D01*
X510788D01*
Y707535D01*
X508249Y704996D01*
X167383Y602126D02*
X164844Y604665D01*
X159765D01*
X157226Y602126D01*
Y591969D01*
X159765Y589430D01*
X164844D01*
X167383Y591969D01*
X172461Y602126D02*
X175000Y604665D01*
X180079D01*
X182618Y602126D01*
Y599587D01*
X180079Y597048D01*
X177539D01*
X180079D01*
X182618Y594508D01*
Y591969D01*
X180079Y589430D01*
X175000D01*
X172461Y591969D01*
X227073Y727348D02*
X224534Y729887D01*
X219455D01*
X216916Y727348D01*
Y717191D01*
X219455Y714652D01*
X224534D01*
X227073Y717191D01*
X242308Y714652D02*
X232151D01*
X242308Y724809D01*
Y727348D01*
X239769Y729887D01*
X234690D01*
X232151Y727348D01*
X174250Y122328D02*
X171711Y124867D01*
X166632D01*
X164093Y122328D01*
Y112172D01*
X166632Y109633D01*
X171711D01*
X174250Y112172D01*
X179328Y109633D02*
X184407D01*
X181868D01*
Y124867D01*
X179328Y122328D01*
M02*
