M48
;Layer_Color=9474304
;FILE_FORMAT=4:4
METRIC,LZ
;TYPE=PLATED
T1F00S00C0.5000
T2F00S00C0.7500
T3F00S00C0.8000
T4F00S00C0.8500
T5F00S00C0.9000
T6F00S00C1.0000
T7F00S00C1.0500
T8F00S00C1.3000
T9F00S00C1.4000
T10F00S00C1.6000
T11F00S00C2.0000
%
T01
X00276Y0019025
X00476Y0025025
T02
X00176Y0009025
X00201
T03
X00166Y0056025
X002168
X00236Y0064485
Y0069565
T04
X00546Y0009525
Y0018525
Y0024525
X00501
X00461Y0026025
X00371
Y0016025
X00461
X004985Y0018525
Y0009525
X00461Y0006025
X00371
Y0036025
X00461
X00501Y0033525
Y0039525
Y0048525
X00461Y0046025
X00371
Y0056025
X00461
Y0066025
X00371
X00566Y0065525
Y0056525
X00546Y0048525
Y0039525
Y0033525
T05
X006025Y00146
Y00172
Y00198
X002341Y0019295
Y0021835
Y0016755
Y0014215
X001579
Y0016755
Y0019295
Y0021835
X00156Y0030325
X002322
Y0032865
Y0035405
Y0037945
Y0040485
Y0043025
Y0045565
Y0048105
X00156
Y0045565
Y0043025
Y0040485
Y0037945
Y0035405
Y0032865
T06
X00166Y0064485
Y0067025
Y0069565
T07
X00306Y0006025
X003314
Y0016025
X00306
Y0026025
X003314
Y0036025
X00306
X003056Y0046025
X00331
X003314Y0056025
X00306
Y0066025
X003314
X00506Y0067463
Y0056587
X00636Y0061025
Y0063565
T08
X00696Y0013025
Y0018025
X000905Y0064525
Y0069525
X00606Y0046725
X00666Y0048725
X00726Y0046725
Y0034525
X00606
T09
X00091Y0009525
Y0014525
Y0019525
T10
X00096Y0031775
Y0036775
Y0041775
Y0046775
Y0051775
T11
X0078Y0002
X0002
X0078Y0076
X0002
M30
