G04*
G04 #@! TF.GenerationSoftware,Altium Limited,Altium Designer,22.9.1 (49)*
G04*
G04 Layer_Color=16711935*
%FSLAX44Y44*%
%MOMM*%
G71*
G04*
G04 #@! TF.SameCoordinates,7A9AD83F-BE66-4558-94AD-99BB97DC6B92*
G04*
G04*
G04 #@! TF.FilePolarity,Positive*
G04*
G01*
G75*
%ADD10C,0.2000*%
G36*
X674275Y397282D02*
X674266Y397208D01*
Y397125D01*
X674256Y396931D01*
X674229Y396728D01*
X674201Y396506D01*
X674155Y396302D01*
X674127Y396201D01*
X674099Y396117D01*
Y396108D01*
X674090Y396099D01*
X674062Y396043D01*
X674025Y395960D01*
X673960Y395858D01*
X673877Y395747D01*
X673766Y395627D01*
X673637Y395516D01*
X673489Y395405D01*
X673480D01*
X673470Y395396D01*
X673415Y395359D01*
X673322Y395322D01*
X673202Y395267D01*
X673064Y395220D01*
X672897Y395174D01*
X672721Y395147D01*
X672527Y395137D01*
X672518D01*
X672499D01*
X672463D01*
X672416Y395147D01*
X672352D01*
X672287Y395156D01*
X672130Y395193D01*
X671945Y395248D01*
X671751Y395322D01*
X671556Y395433D01*
X671464Y395507D01*
X671372Y395581D01*
X671362Y395590D01*
X671353Y395600D01*
X671325Y395627D01*
X671298Y395664D01*
X671261Y395710D01*
X671224Y395766D01*
X671177Y395840D01*
X671122Y395914D01*
X671076Y396006D01*
X671030Y396108D01*
X670974Y396219D01*
X670928Y396339D01*
X670891Y396478D01*
X670845Y396617D01*
X670817Y396774D01*
X670789Y396940D01*
X670780Y396922D01*
X670761Y396885D01*
X670724Y396829D01*
X670687Y396755D01*
X670586Y396589D01*
X670521Y396506D01*
X670465Y396432D01*
X670447Y396413D01*
X670401Y396367D01*
X670327Y396293D01*
X670234Y396201D01*
X670105Y396099D01*
X669966Y395979D01*
X669800Y395858D01*
X669615Y395729D01*
X667877Y394629D01*
Y395683D01*
X669208Y396524D01*
X669217D01*
X669236Y396543D01*
X669264Y396561D01*
X669301Y396589D01*
X669402Y396654D01*
X669532Y396737D01*
X669670Y396838D01*
X669818Y396940D01*
X669957Y397042D01*
X670086Y397134D01*
X670096Y397144D01*
X670133Y397171D01*
X670188Y397218D01*
X670253Y397282D01*
X670391Y397421D01*
X670456Y397495D01*
X670512Y397569D01*
X670521Y397578D01*
X670530Y397597D01*
X670549Y397634D01*
X670576Y397689D01*
X670604Y397745D01*
X670632Y397809D01*
X670678Y397957D01*
Y397966D01*
X670687Y397985D01*
Y398022D01*
X670697Y398068D01*
X670706Y398133D01*
Y398207D01*
X670715Y398309D01*
Y399399D01*
X667877D01*
Y400250D01*
X674275D01*
Y397282D01*
D02*
G37*
G36*
X670345Y394166D02*
X670447Y394157D01*
X670558Y394148D01*
X670687Y394129D01*
X670817Y394102D01*
X671113Y394028D01*
X671261Y393982D01*
X671418Y393926D01*
X671566Y393852D01*
X671704Y393769D01*
X671843Y393676D01*
X671973Y393575D01*
X671982Y393566D01*
X672000Y393547D01*
X672028Y393510D01*
X672074Y393464D01*
X672121Y393408D01*
X672176Y393334D01*
X672241Y393251D01*
X672296Y393149D01*
X672361Y393048D01*
X672416Y392928D01*
X672472Y392798D01*
X672518Y392659D01*
X672564Y392512D01*
X672592Y392354D01*
X672610Y392188D01*
X672620Y392012D01*
Y391920D01*
X672610Y391855D01*
X672601Y391781D01*
X672583Y391689D01*
X672564Y391587D01*
X672536Y391467D01*
X672509Y391356D01*
X672463Y391226D01*
X672416Y391106D01*
X672352Y390977D01*
X672278Y390847D01*
X672194Y390718D01*
X672093Y390598D01*
X671982Y390487D01*
X671973Y390477D01*
X671954Y390459D01*
X671917Y390431D01*
X671862Y390394D01*
X671797Y390348D01*
X671723Y390302D01*
X671630Y390246D01*
X671519Y390191D01*
X671399Y390135D01*
X671270Y390080D01*
X671122Y390034D01*
X670965Y389987D01*
X670789Y389950D01*
X670604Y389923D01*
X670410Y389904D01*
X670197Y389895D01*
X670188D01*
X670151D01*
X670086D01*
X669994Y389904D01*
Y393371D01*
X669985D01*
X669957D01*
X669920Y393362D01*
X669865D01*
X669800Y393353D01*
X669726Y393334D01*
X669559Y393307D01*
X669374Y393251D01*
X669171Y393177D01*
X668986Y393075D01*
X668820Y392946D01*
Y392937D01*
X668801Y392928D01*
X668755Y392872D01*
X668690Y392789D01*
X668626Y392678D01*
X668552Y392530D01*
X668487Y392364D01*
X668441Y392179D01*
X668431Y392077D01*
X668422Y391966D01*
Y391892D01*
X668431Y391809D01*
X668450Y391707D01*
X668478Y391596D01*
X668515Y391467D01*
X668570Y391347D01*
X668644Y391226D01*
X668653Y391217D01*
X668690Y391171D01*
X668746Y391115D01*
X668820Y391051D01*
X668922Y390977D01*
X669051Y390894D01*
X669199Y390810D01*
X669374Y390736D01*
X669273Y389923D01*
X669264D01*
X669245Y389932D01*
X669208Y389941D01*
X669153Y389960D01*
X669097Y389987D01*
X669023Y390015D01*
X668866Y390089D01*
X668690Y390182D01*
X668505Y390311D01*
X668330Y390459D01*
X668163Y390644D01*
Y390653D01*
X668145Y390672D01*
X668126Y390699D01*
X668099Y390736D01*
X668071Y390792D01*
X668043Y390847D01*
X668006Y390921D01*
X667969Y391004D01*
X667932Y391097D01*
X667895Y391189D01*
X667840Y391421D01*
X667794Y391679D01*
X667775Y391966D01*
Y392068D01*
X667784Y392132D01*
X667794Y392216D01*
X667812Y392317D01*
X667831Y392428D01*
X667849Y392548D01*
X667923Y392807D01*
X667978Y392946D01*
X668034Y393075D01*
X668108Y393214D01*
X668191Y393344D01*
X668284Y393464D01*
X668394Y393584D01*
X668404Y393593D01*
X668422Y393612D01*
X668459Y393639D01*
X668515Y393676D01*
X668579Y393723D01*
X668653Y393769D01*
X668746Y393824D01*
X668848Y393880D01*
X668968Y393935D01*
X669097Y393991D01*
X669245Y394037D01*
X669402Y394083D01*
X669569Y394120D01*
X669754Y394148D01*
X669948Y394166D01*
X670151Y394176D01*
X670160D01*
X670207D01*
X670262D01*
X670345Y394166D01*
D02*
G37*
G36*
X674275Y388166D02*
X667877D01*
Y388952D01*
X674275D01*
Y388166D01*
D02*
G37*
G36*
X669217Y387205D02*
X669301Y387195D01*
X669402Y387177D01*
X669504Y387149D01*
X669615Y387112D01*
X669717Y387066D01*
X669726Y387057D01*
X669763Y387038D01*
X669818Y387001D01*
X669883Y386955D01*
X669957Y386899D01*
X670031Y386825D01*
X670105Y386752D01*
X670170Y386659D01*
X670179Y386650D01*
X670197Y386613D01*
X670234Y386567D01*
X670271Y386493D01*
X670308Y386409D01*
X670355Y386308D01*
X670391Y386206D01*
X670428Y386086D01*
Y386077D01*
X670438Y386040D01*
X670456Y385984D01*
X670465Y385910D01*
X670484Y385818D01*
X670502Y385698D01*
X670530Y385559D01*
X670549Y385392D01*
Y385383D01*
X670558Y385346D01*
Y385300D01*
X670567Y385235D01*
X670576Y385161D01*
X670595Y385069D01*
X670604Y384967D01*
X670623Y384856D01*
X670669Y384634D01*
X670715Y384394D01*
X670771Y384181D01*
X670798Y384080D01*
X670826Y383987D01*
X670835D01*
X670854D01*
X670909Y383978D01*
X670974D01*
X671011D01*
X671030D01*
X671039D01*
X671048D01*
X671104D01*
X671196Y383987D01*
X671298Y384006D01*
X671409Y384033D01*
X671519Y384080D01*
X671621Y384135D01*
X671704Y384209D01*
X671714Y384218D01*
X671751Y384264D01*
X671788Y384338D01*
X671843Y384431D01*
X671889Y384560D01*
X671936Y384708D01*
X671963Y384893D01*
X671973Y385106D01*
Y385198D01*
X671963Y385291D01*
X671945Y385420D01*
X671926Y385550D01*
X671889Y385688D01*
X671843Y385818D01*
X671778Y385929D01*
X671769Y385938D01*
X671741Y385975D01*
X671695Y386021D01*
X671621Y386077D01*
X671529Y386132D01*
X671409Y386197D01*
X671261Y386252D01*
X671094Y386308D01*
X671196Y387075D01*
X671205D01*
X671214Y387066D01*
X671242D01*
X671279Y387057D01*
X671362Y387029D01*
X671482Y386992D01*
X671603Y386946D01*
X671732Y386890D01*
X671862Y386816D01*
X671982Y386733D01*
X671991Y386724D01*
X672028Y386687D01*
X672084Y386631D01*
X672158Y386557D01*
X672231Y386456D01*
X672305Y386335D01*
X672389Y386197D01*
X672453Y386040D01*
Y386030D01*
X672463Y386021D01*
X672472Y385993D01*
X672481Y385956D01*
X672509Y385864D01*
X672536Y385734D01*
X672564Y385587D01*
X672592Y385402D01*
X672610Y385207D01*
X672620Y384986D01*
Y384884D01*
X672610Y384782D01*
X672601Y384644D01*
X672583Y384486D01*
X672555Y384329D01*
X672518Y384172D01*
X672472Y384024D01*
X672463Y384006D01*
X672444Y383959D01*
X672416Y383895D01*
X672379Y383811D01*
X672324Y383719D01*
X672268Y383627D01*
X672194Y383543D01*
X672121Y383469D01*
X672111Y383460D01*
X672084Y383442D01*
X672037Y383414D01*
X671982Y383377D01*
X671899Y383331D01*
X671815Y383294D01*
X671714Y383257D01*
X671593Y383229D01*
X671584D01*
X671556Y383220D01*
X671501Y383210D01*
X671427Y383201D01*
X671325D01*
X671205Y383192D01*
X671048Y383183D01*
X670872D01*
X669818D01*
X669809D01*
X669772D01*
X669717D01*
X669643D01*
X669559D01*
X669458D01*
X669236Y383173D01*
X669005D01*
X668774Y383164D01*
X668672Y383155D01*
X668579D01*
X668496Y383146D01*
X668431Y383136D01*
X668422D01*
X668385Y383127D01*
X668330Y383118D01*
X668256Y383090D01*
X668173Y383072D01*
X668080Y383035D01*
X667978Y382989D01*
X667877Y382942D01*
Y383765D01*
X667886Y383774D01*
X667923Y383784D01*
X667969Y383802D01*
X668043Y383830D01*
X668126Y383858D01*
X668228Y383876D01*
X668339Y383895D01*
X668459Y383913D01*
Y383922D01*
X668441Y383932D01*
X668394Y383987D01*
X668330Y384070D01*
X668247Y384181D01*
X668163Y384320D01*
X668071Y384459D01*
X667988Y384607D01*
X667923Y384764D01*
X667914Y384782D01*
X667905Y384838D01*
X667877Y384921D01*
X667849Y385023D01*
X667821Y385152D01*
X667803Y385300D01*
X667784Y385466D01*
X667775Y385633D01*
Y385707D01*
X667784Y385762D01*
Y385827D01*
X667794Y385901D01*
X667821Y386067D01*
X667868Y386252D01*
X667932Y386456D01*
X668025Y386641D01*
X668145Y386807D01*
X668163Y386825D01*
X668210Y386872D01*
X668293Y386936D01*
X668404Y387010D01*
X668542Y387084D01*
X668700Y387149D01*
X668894Y387195D01*
X668986Y387205D01*
X669097Y387214D01*
X669116D01*
X669153D01*
X669217Y387205D01*
D02*
G37*
G36*
X672518Y381592D02*
X669828Y380622D01*
X669818D01*
X669809Y380612D01*
X669781Y380603D01*
X669735Y380594D01*
X669689Y380575D01*
X669633Y380557D01*
X669504Y380511D01*
X669347Y380455D01*
X669162Y380400D01*
X668968Y380344D01*
X668755Y380289D01*
X668764D01*
X668783Y380280D01*
X668811Y380270D01*
X668848Y380261D01*
X668894Y380252D01*
X668949Y380233D01*
X669088Y380196D01*
X669245Y380150D01*
X669430Y380085D01*
X669615Y380030D01*
X669809Y379956D01*
X672518Y378957D01*
Y378172D01*
X667803Y379938D01*
X667794D01*
X667766Y379947D01*
X667729Y379965D01*
X667683Y379984D01*
X667618Y380011D01*
X667544Y380039D01*
X667387Y380104D01*
X667211Y380169D01*
X667035Y380243D01*
X666878Y380317D01*
X666814Y380354D01*
X666749Y380381D01*
X666730Y380391D01*
X666684Y380418D01*
X666619Y380465D01*
X666536Y380520D01*
X666444Y380594D01*
X666351Y380677D01*
X666259Y380760D01*
X666185Y380862D01*
X666176Y380871D01*
X666157Y380908D01*
X666129Y380964D01*
X666092Y381047D01*
X666055Y381139D01*
X666028Y381250D01*
X666009Y381371D01*
X666000Y381509D01*
Y381546D01*
X666009Y381592D01*
Y381657D01*
X666028Y381731D01*
X666046Y381814D01*
X666065Y381907D01*
X666102Y382009D01*
X666832Y382092D01*
Y382082D01*
X666823Y382046D01*
X666814Y381999D01*
X666795Y381944D01*
X666767Y381796D01*
X666758Y381648D01*
Y381602D01*
X666767Y381555D01*
Y381500D01*
X666795Y381361D01*
X666823Y381297D01*
X666851Y381232D01*
Y381223D01*
X666869Y381204D01*
X666888Y381176D01*
X666915Y381139D01*
X666989Y381056D01*
X667091Y380982D01*
X667100D01*
X667119Y380964D01*
X667156Y380945D01*
X667211Y380927D01*
X667285Y380890D01*
X667396Y380853D01*
X667525Y380797D01*
X667683Y380742D01*
X667692D01*
X667729Y380723D01*
X667794Y380705D01*
X667877Y380668D01*
X672518Y382425D01*
Y381592D01*
D02*
G37*
G36*
X506000Y628552D02*
X500998D01*
X501007Y628543D01*
X501044Y628497D01*
X501100Y628442D01*
X501165Y628349D01*
X501248Y628247D01*
X501340Y628118D01*
X501442Y627970D01*
X501544Y627803D01*
Y627794D01*
X501553Y627785D01*
X501590Y627730D01*
X501636Y627637D01*
X501692Y627526D01*
X501756Y627397D01*
X501821Y627258D01*
X501886Y627119D01*
X501941Y626981D01*
X501183D01*
Y626990D01*
X501165Y627008D01*
X501155Y627045D01*
X501128Y627092D01*
X501100Y627147D01*
X501063Y627212D01*
X500970Y627369D01*
X500869Y627554D01*
X500739Y627739D01*
X500591Y627933D01*
X500434Y628127D01*
X500425Y628136D01*
X500416Y628146D01*
X500388Y628173D01*
X500360Y628210D01*
X500268Y628294D01*
X500157Y628405D01*
X500027Y628516D01*
X499879Y628636D01*
X499732Y628737D01*
X499574Y628830D01*
Y629338D01*
X506000D01*
Y628552D01*
D02*
G37*
G36*
X502958Y625529D02*
X503032D01*
X503208Y625520D01*
X503411Y625492D01*
X503624Y625464D01*
X503846Y625418D01*
X504068Y625363D01*
X504077D01*
X504095Y625354D01*
X504123Y625344D01*
X504160Y625335D01*
X504262Y625298D01*
X504391Y625243D01*
X504539Y625187D01*
X504687Y625113D01*
X504844Y625021D01*
X504992Y624928D01*
X505011Y624919D01*
X505057Y624882D01*
X505122Y624827D01*
X505205Y624753D01*
X505297Y624669D01*
X505390Y624568D01*
X505492Y624466D01*
X505575Y624346D01*
X505584Y624327D01*
X505612Y624290D01*
X505649Y624226D01*
X505695Y624133D01*
X505750Y624022D01*
X505797Y623893D01*
X505852Y623745D01*
X505898Y623578D01*
Y623560D01*
X505908Y623532D01*
X505917Y623504D01*
X505926Y623412D01*
X505945Y623282D01*
X505963Y623134D01*
X505982Y622959D01*
X505991Y622765D01*
X506000Y622552D01*
Y620250D01*
X499602D01*
Y622709D01*
X499611Y622876D01*
X499621Y623061D01*
X499639Y623246D01*
X499667Y623430D01*
X499695Y623588D01*
Y623597D01*
X499704Y623615D01*
Y623643D01*
X499722Y623680D01*
X499750Y623782D01*
X499796Y623911D01*
X499861Y624059D01*
X499944Y624216D01*
X500037Y624373D01*
X500157Y624521D01*
X500166Y624531D01*
X500175Y624540D01*
X500203Y624568D01*
X500231Y624605D01*
X500323Y624697D01*
X500453Y624808D01*
X500610Y624928D01*
X500795Y625058D01*
X501007Y625178D01*
X501248Y625280D01*
X501257D01*
X501276Y625289D01*
X501313Y625307D01*
X501368Y625317D01*
X501433Y625344D01*
X501507Y625363D01*
X501590Y625381D01*
X501692Y625409D01*
X501793Y625437D01*
X501913Y625455D01*
X502172Y625501D01*
X502459Y625529D01*
X502773Y625538D01*
X502783D01*
X502801D01*
X502847D01*
X502894D01*
X502958Y625529D01*
D02*
G37*
%LPC*%
G36*
X673563Y399399D02*
X671445D01*
Y397495D01*
X671455Y397384D01*
X671464Y397255D01*
X671473Y397107D01*
X671492Y396959D01*
X671519Y396811D01*
X671556Y396681D01*
X671566Y396663D01*
X671584Y396626D01*
X671612Y396570D01*
X671649Y396496D01*
X671704Y396413D01*
X671769Y396330D01*
X671852Y396247D01*
X671945Y396182D01*
X671954Y396173D01*
X671991Y396154D01*
X672047Y396127D01*
X672121Y396090D01*
X672204Y396062D01*
X672296Y396034D01*
X672407Y396016D01*
X672518Y396006D01*
X672527D01*
X672536D01*
X672592Y396016D01*
X672675Y396025D01*
X672786Y396043D01*
X672897Y396090D01*
X673027Y396145D01*
X673147Y396228D01*
X673267Y396339D01*
X673276Y396358D01*
X673313Y396404D01*
X673359Y396478D01*
X673415Y396598D01*
X673470Y396737D01*
X673517Y396922D01*
X673553Y397134D01*
X673563Y397384D01*
Y399399D01*
D02*
G37*
G36*
X670641Y393325D02*
Y390727D01*
X670650D01*
X670669D01*
X670697Y390736D01*
X670734D01*
X670845Y390755D01*
X670965Y390783D01*
X671113Y390829D01*
X671251Y390875D01*
X671390Y390949D01*
X671510Y391032D01*
X671519D01*
X671529Y391051D01*
X671584Y391097D01*
X671658Y391180D01*
X671741Y391291D01*
X671825Y391430D01*
X671899Y391596D01*
X671954Y391790D01*
X671963Y391892D01*
X671973Y392003D01*
Y392058D01*
X671963Y392095D01*
X671954Y392197D01*
X671926Y392317D01*
X671880Y392465D01*
X671815Y392622D01*
X671723Y392770D01*
X671603Y392918D01*
X671584Y392937D01*
X671538Y392974D01*
X671455Y393039D01*
X671344Y393103D01*
X671214Y393177D01*
X671048Y393242D01*
X670854Y393297D01*
X670641Y393325D01*
D02*
G37*
G36*
X669125Y386372D02*
X669116D01*
X669069D01*
X669014Y386363D01*
X668940Y386345D01*
X668857Y386317D01*
X668774Y386271D01*
X668681Y386215D01*
X668598Y386141D01*
X668589Y386132D01*
X668570Y386095D01*
X668533Y386040D01*
X668496Y385966D01*
X668459Y385864D01*
X668422Y385744D01*
X668404Y385605D01*
X668394Y385439D01*
Y385365D01*
X668404Y385272D01*
X668422Y385171D01*
X668441Y385041D01*
X668478Y384912D01*
X668524Y384773D01*
X668589Y384634D01*
X668598Y384616D01*
X668626Y384579D01*
X668672Y384514D01*
X668737Y384440D01*
X668811Y384357D01*
X668903Y384264D01*
X669014Y384190D01*
X669134Y384117D01*
X669143Y384107D01*
X669180Y384098D01*
X669245Y384080D01*
X669328Y384052D01*
X669439Y384024D01*
X669569Y384006D01*
X669726Y383996D01*
X669911Y383987D01*
X670207Y383978D01*
Y383987D01*
X670197Y383996D01*
X670188Y384024D01*
X670179Y384061D01*
X670160Y384107D01*
X670142Y384163D01*
X670123Y384227D01*
X670105Y384301D01*
X670077Y384385D01*
X670059Y384486D01*
X670031Y384588D01*
X670003Y384708D01*
X669976Y384838D01*
X669948Y384967D01*
X669929Y385115D01*
X669902Y385272D01*
Y385291D01*
X669892Y385346D01*
X669874Y385439D01*
X669855Y385540D01*
X669837Y385651D01*
X669809Y385762D01*
X669781Y385864D01*
X669744Y385956D01*
Y385966D01*
X669726Y385993D01*
X669707Y386030D01*
X669680Y386067D01*
X669606Y386178D01*
X669495Y386271D01*
X669485D01*
X669467Y386289D01*
X669430Y386298D01*
X669384Y386317D01*
X669328Y386335D01*
X669273Y386354D01*
X669199Y386363D01*
X669125Y386372D01*
D02*
G37*
G36*
X502755Y624669D02*
X502746D01*
X502709D01*
X502662D01*
X502589Y624660D01*
X502505D01*
X502413Y624651D01*
X502302Y624641D01*
X502191Y624632D01*
X501941Y624586D01*
X501682Y624531D01*
X501442Y624447D01*
X501322Y624392D01*
X501220Y624336D01*
X501211D01*
X501192Y624318D01*
X501165Y624300D01*
X501128Y624281D01*
X501035Y624207D01*
X500924Y624115D01*
X500804Y623994D01*
X500684Y623856D01*
X500582Y623699D01*
X500499Y623532D01*
X500490Y623514D01*
X500480Y623467D01*
X500453Y623384D01*
X500425Y623264D01*
X500406Y623116D01*
X500379Y622931D01*
X500369Y622820D01*
Y622700D01*
X500360Y622580D01*
Y621101D01*
X505242D01*
Y622617D01*
X505233Y622682D01*
X505223Y622820D01*
X505214Y622977D01*
X505196Y623144D01*
X505168Y623310D01*
X505131Y623449D01*
X505122Y623467D01*
X505112Y623514D01*
X505085Y623578D01*
X505048Y623661D01*
X504992Y623754D01*
X504937Y623846D01*
X504872Y623939D01*
X504798Y624031D01*
X504780Y624041D01*
X504743Y624078D01*
X504678Y624133D01*
X504585Y624198D01*
X504465Y624272D01*
X504327Y624355D01*
X504170Y624429D01*
X503994Y624494D01*
X503984D01*
X503966Y624503D01*
X503938Y624512D01*
X503901Y624521D01*
X503855Y624531D01*
X503790Y624549D01*
X503726Y624568D01*
X503652Y624586D01*
X503467Y624614D01*
X503254Y624641D01*
X503014Y624660D01*
X502755Y624669D01*
D02*
G37*
%LPD*%
D10*
X582500Y513750D02*
X749500D01*
X582500Y286750D02*
Y513750D01*
Y286750D02*
X749500D01*
Y513750D01*
X491500Y556870D02*
X520500D01*
Y683630D01*
X491500D02*
X520500D01*
X491500Y556870D02*
Y683630D01*
M02*
