G04*
G04 #@! TF.GenerationSoftware,Altium Limited,Altium Designer,22.9.1 (49)*
G04*
G04 Layer_Physical_Order=2*
G04 Layer_Color=16711680*
%FSLAX44Y44*%
%MOMM*%
G71*
G04*
G04 #@! TF.SameCoordinates,7A9AD83F-BE66-4558-94AD-99BB97DC6B92*
G04*
G04*
G04 #@! TF.FilePolarity,Positive*
G04*
G01*
G75*
%ADD31C,2.0000*%
%ADD32R,2.0000X2.0000*%
%ADD33C,1.6000*%
%ADD34R,1.6000X1.6000*%
%ADD43C,0.3810*%
%ADD44R,1.4000X1.4000*%
%ADD45C,1.4000*%
%ADD46C,1.2500*%
%ADD47R,1.2500X1.2500*%
%ADD48R,1.5000X1.5000*%
%ADD49C,1.5000*%
%ADD50R,1.3500X1.3500*%
%ADD51C,1.3500*%
%ADD52R,1.6000X1.6000*%
%ADD53R,1.3000X1.3000*%
%ADD54C,1.3000*%
%ADD55R,1.3500X1.3500*%
%ADD56R,1.3000X1.3000*%
%ADD57C,1.9500*%
%ADD58R,1.9500X1.9500*%
%ADD59C,1.5500*%
%ADD60R,1.5500X1.5500*%
%ADD61R,1.5500X1.5500*%
%ADD62R,2.4000X2.4000*%
%ADD63C,2.4000*%
%ADD64C,2.5000*%
%ADD65C,1.0000*%
G36*
X760000Y40000D02*
X40000D01*
Y740000D01*
X760000D01*
Y40000D01*
D02*
G37*
%LPC*%
G36*
X237123Y704182D02*
X234877D01*
X232707Y703601D01*
X230761Y702477D01*
X229173Y700889D01*
X228050Y698943D01*
X227468Y696773D01*
Y694527D01*
X228050Y692357D01*
X229173Y690411D01*
X230761Y688823D01*
X232707Y687700D01*
X234877Y687118D01*
X237123D01*
X239293Y687700D01*
X241239Y688823D01*
X242827Y690411D01*
X243951Y692357D01*
X244532Y694527D01*
Y696773D01*
X243951Y698943D01*
X242827Y700889D01*
X241239Y702477D01*
X239293Y703601D01*
X237123Y704182D01*
D02*
G37*
G36*
X176032Y705682D02*
X155968D01*
Y685618D01*
X176032D01*
Y705682D01*
D02*
G37*
G36*
X92051Y707032D02*
X88949D01*
X85953Y706229D01*
X83266Y704678D01*
X81072Y702484D01*
X79521Y699798D01*
X78718Y696801D01*
Y693699D01*
X79521Y690702D01*
X81072Y688016D01*
X83266Y685822D01*
X85953Y684271D01*
X88949Y683468D01*
X92051D01*
X95048Y684271D01*
X97735Y685822D01*
X99928Y688016D01*
X101479Y690702D01*
X102282Y693699D01*
Y696801D01*
X101479Y699798D01*
X99928Y702484D01*
X97735Y704678D01*
X95048Y706229D01*
X92051Y707032D01*
D02*
G37*
G36*
X168540Y680481D02*
Y672790D01*
X176231D01*
X175822Y674318D01*
X174434Y676722D01*
X172472Y678684D01*
X170068Y680072D01*
X168540Y680481D01*
D02*
G37*
G36*
X163460D02*
X161932Y680072D01*
X159528Y678684D01*
X157566Y676722D01*
X156178Y674318D01*
X155769Y672790D01*
X163460D01*
Y680481D01*
D02*
G37*
G36*
X507321Y684662D02*
X504679D01*
X502128Y683978D01*
X499840Y682658D01*
X497972Y680790D01*
X496652Y678502D01*
X495968Y675951D01*
Y673309D01*
X496652Y670758D01*
X497972Y668470D01*
X499840Y666602D01*
X502128Y665282D01*
X504679Y664598D01*
X507321D01*
X509872Y665282D01*
X512160Y666602D01*
X514028Y668470D01*
X515348Y670758D01*
X516032Y673309D01*
Y675951D01*
X515348Y678502D01*
X514028Y680790D01*
X512160Y682658D01*
X509872Y683978D01*
X507321Y684662D01*
D02*
G37*
G36*
X176231Y667710D02*
X168540D01*
Y660019D01*
X170068Y660428D01*
X172472Y661816D01*
X174434Y663778D01*
X175822Y666182D01*
X176231Y667710D01*
D02*
G37*
G36*
X163460D02*
X155769D01*
X156178Y666182D01*
X156206Y666133D01*
X151225Y661151D01*
X150354Y659849D01*
X150049Y658313D01*
Y557427D01*
X150354Y555891D01*
X151225Y554589D01*
X222223Y483590D01*
X229660D01*
Y490764D01*
X228325Y490406D01*
X227333Y489833D01*
X166622Y550545D01*
X166872Y551148D01*
X167219Y551744D01*
X168489Y552084D01*
X173599Y546975D01*
X174901Y546104D01*
X176437Y545799D01*
X246520D01*
X248057Y546104D01*
X249359Y546975D01*
X270307Y567923D01*
X296218D01*
Y550468D01*
X315782D01*
Y567923D01*
X323580D01*
X324066Y566749D01*
X323573Y566256D01*
X322285Y564026D01*
X321618Y561538D01*
Y558962D01*
X322285Y556474D01*
X323573Y554244D01*
X325394Y552422D01*
X327624Y551135D01*
X330112Y550468D01*
X332688D01*
X335176Y551135D01*
X337406Y552422D01*
X339227Y554244D01*
X340515Y556474D01*
X341182Y558962D01*
Y561538D01*
X340515Y564026D01*
X339227Y566256D01*
X338734Y566749D01*
X339220Y567923D01*
X362218D01*
Y551468D01*
X379782D01*
Y567923D01*
X447650D01*
X452630Y562943D01*
X452218Y561406D01*
Y559094D01*
X452817Y556860D01*
X453973Y554858D01*
X455608Y553223D01*
X457610Y552066D01*
X459844Y551468D01*
X462156D01*
X464390Y552066D01*
X466392Y553223D01*
X468027Y554858D01*
X469184Y556860D01*
X469782Y559094D01*
Y561406D01*
X469184Y563640D01*
X468027Y565642D01*
X466392Y567277D01*
X464390Y568433D01*
X462156Y569032D01*
X459844D01*
X458307Y568620D01*
X452151Y574775D01*
X450849Y575646D01*
X449313Y575951D01*
X268644D01*
X267108Y575646D01*
X265806Y574775D01*
X244858Y553827D01*
X225332D01*
Y568782D01*
X220814D01*
Y623987D01*
X233145Y636318D01*
X244532D01*
Y653382D01*
X227468D01*
Y641995D01*
X213962Y628488D01*
X213091Y627186D01*
X212786Y625650D01*
Y568782D01*
X208268D01*
Y553827D01*
X178100D01*
X174166Y557761D01*
X174532Y559127D01*
Y561373D01*
X173951Y563543D01*
X172827Y565489D01*
X171239Y567077D01*
X169293Y568201D01*
X167123Y568782D01*
X164877D01*
X162707Y568201D01*
X160761Y567077D01*
X159347Y565663D01*
X158077Y565910D01*
Y636926D01*
X159250Y637412D01*
X159840Y636822D01*
X162128Y635502D01*
X164679Y634818D01*
X167321D01*
X169872Y635502D01*
X172160Y636822D01*
X174028Y638690D01*
X175348Y640978D01*
X176032Y643529D01*
Y646171D01*
X175348Y648722D01*
X174028Y651010D01*
X172160Y652878D01*
X169872Y654198D01*
X167321Y654882D01*
X164679D01*
X162128Y654198D01*
X159840Y652878D01*
X159250Y652288D01*
X158077Y652774D01*
Y656650D01*
X161883Y660456D01*
X161932Y660428D01*
X163460Y660019D01*
Y667710D01*
D02*
G37*
G36*
X462156Y669032D02*
X459844D01*
X457610Y668434D01*
X455608Y667277D01*
X453973Y665642D01*
X452817Y663640D01*
X452218Y661406D01*
Y659094D01*
X452817Y656860D01*
X453973Y654858D01*
X455608Y653223D01*
X457610Y652066D01*
X459844Y651468D01*
X462156D01*
X464390Y652066D01*
X466392Y653223D01*
X468027Y654858D01*
X469184Y656860D01*
X469782Y659094D01*
Y661406D01*
X469184Y663640D01*
X468027Y665642D01*
X466392Y667277D01*
X464390Y668434D01*
X462156Y669032D01*
D02*
G37*
G36*
X379782D02*
X362218D01*
Y651468D01*
X379782D01*
Y669032D01*
D02*
G37*
G36*
X332688Y670032D02*
X330112D01*
X327624Y669365D01*
X325394Y668078D01*
X323573Y666256D01*
X322285Y664026D01*
X321618Y661538D01*
Y658962D01*
X322285Y656474D01*
X323573Y654244D01*
X325394Y652422D01*
X327624Y651135D01*
X330112Y650468D01*
X332688D01*
X335176Y651135D01*
X337406Y652422D01*
X339227Y654244D01*
X340515Y656474D01*
X341182Y658962D01*
Y661538D01*
X340515Y664026D01*
X339227Y666256D01*
X337406Y668078D01*
X335176Y669365D01*
X332688Y670032D01*
D02*
G37*
G36*
X315782D02*
X296218D01*
Y650468D01*
X315782D01*
Y670032D01*
D02*
G37*
G36*
X567156Y664032D02*
X564844D01*
X562610Y663434D01*
X560608Y662277D01*
X558973Y660642D01*
X557817Y658640D01*
X557218Y656406D01*
Y654094D01*
X557817Y651860D01*
X558973Y649858D01*
X560608Y648223D01*
X562610Y647066D01*
X564844Y646468D01*
X567156D01*
X569390Y647066D01*
X571392Y648223D01*
X573027Y649858D01*
X574184Y651860D01*
X574782Y654094D01*
Y656406D01*
X574184Y658640D01*
X573027Y660642D01*
X571392Y662277D01*
X569390Y663434D01*
X567156Y664032D01*
D02*
G37*
G36*
X102282Y657032D02*
X78718D01*
Y633468D01*
X102282D01*
Y657032D01*
D02*
G37*
G36*
X645782Y645432D02*
X626218D01*
Y625868D01*
X645782D01*
Y645432D01*
D02*
G37*
G36*
X637288Y620032D02*
X634712D01*
X632224Y619365D01*
X629994Y618078D01*
X628172Y616256D01*
X626885Y614026D01*
X626218Y611538D01*
Y608962D01*
X626885Y606474D01*
X628172Y604244D01*
X629994Y602422D01*
X632224Y601135D01*
X634712Y600468D01*
X637288D01*
X639776Y601135D01*
X642006Y602422D01*
X643828Y604244D01*
X645115Y606474D01*
X645782Y608962D01*
Y611538D01*
X645115Y614026D01*
X643828Y616256D01*
X642006Y618078D01*
X639776Y619365D01*
X637288Y620032D01*
D02*
G37*
G36*
X574782Y574032D02*
X557218D01*
Y556468D01*
X574782D01*
Y574032D01*
D02*
G37*
G36*
X516032Y575902D02*
X495968D01*
Y555838D01*
X516032D01*
Y575902D01*
D02*
G37*
G36*
X234740Y490764D02*
Y483590D01*
X241914D01*
X241556Y484925D01*
X240234Y487215D01*
X238365Y489084D01*
X236075Y490406D01*
X234740Y490764D01*
D02*
G37*
G36*
X678032Y499282D02*
X653968D01*
Y475218D01*
X678032D01*
Y499282D01*
D02*
G37*
G36*
X241914Y478510D02*
X234740D01*
Y471336D01*
X236075Y471694D01*
X238365Y473016D01*
X240234Y474885D01*
X241556Y477175D01*
X241914Y478510D01*
D02*
G37*
G36*
X229660D02*
X222486D01*
X222844Y477175D01*
X224166Y474885D01*
X226035Y473016D01*
X228325Y471694D01*
X229660Y471336D01*
Y478510D01*
D02*
G37*
G36*
X727584Y479282D02*
X724416D01*
X721356Y478462D01*
X718612Y476878D01*
X716372Y474638D01*
X714788Y471894D01*
X713968Y468834D01*
Y465666D01*
X714788Y462606D01*
X716372Y459862D01*
X718612Y457622D01*
X721356Y456038D01*
X724416Y455218D01*
X727584D01*
X730644Y456038D01*
X733388Y457622D01*
X735628Y459862D01*
X737212Y462606D01*
X738032Y465666D01*
Y468834D01*
X737212Y471894D01*
X735628Y474638D01*
X733388Y476878D01*
X730644Y478462D01*
X727584Y479282D01*
D02*
G37*
G36*
X607584D02*
X604416D01*
X601356Y478462D01*
X598612Y476878D01*
X596372Y474638D01*
X594788Y471894D01*
X593968Y468834D01*
Y465666D01*
X594788Y462606D01*
X596372Y459862D01*
X598612Y457622D01*
X601356Y456038D01*
X604416Y455218D01*
X607584D01*
X610644Y456038D01*
X613388Y457622D01*
X615628Y459862D01*
X617212Y462606D01*
X618032Y465666D01*
Y468834D01*
X617212Y471894D01*
X615628Y474638D01*
X613388Y476878D01*
X610644Y478462D01*
X607584Y479282D01*
D02*
G37*
G36*
X462156Y469032D02*
X459844D01*
X457610Y468433D01*
X455608Y467277D01*
X453973Y465642D01*
X452817Y463640D01*
X452218Y461406D01*
Y459094D01*
X452817Y456860D01*
X453973Y454858D01*
X455608Y453223D01*
X457610Y452066D01*
X459844Y451468D01*
X462156D01*
X464390Y452066D01*
X466392Y453223D01*
X468027Y454858D01*
X469184Y456860D01*
X469782Y459094D01*
Y461406D01*
X469184Y463640D01*
X468027Y465642D01*
X466392Y467277D01*
X464390Y468433D01*
X462156Y469032D01*
D02*
G37*
G36*
X379782D02*
X362218D01*
Y451468D01*
X379782D01*
Y469032D01*
D02*
G37*
G36*
X332288Y470032D02*
X329712D01*
X327224Y469365D01*
X324994Y468078D01*
X323172Y466256D01*
X321885Y464026D01*
X321218Y461538D01*
Y458962D01*
X321885Y456474D01*
X323172Y454244D01*
X324994Y452422D01*
X327224Y451135D01*
X329712Y450468D01*
X332288D01*
X334776Y451135D01*
X337006Y452422D01*
X338828Y454244D01*
X340115Y456474D01*
X340782Y458962D01*
Y461538D01*
X340115Y464026D01*
X338828Y466256D01*
X337006Y468078D01*
X334776Y469365D01*
X332288Y470032D01*
D02*
G37*
G36*
X315382D02*
X295818D01*
Y450468D01*
X315382D01*
Y470032D01*
D02*
G37*
G36*
X97847Y531782D02*
X94153D01*
X90584Y530826D01*
X87384Y528978D01*
X84772Y526366D01*
X82924Y523166D01*
X81968Y519597D01*
Y515903D01*
X82924Y512334D01*
X84772Y509134D01*
X87384Y506522D01*
X90584Y504674D01*
X94153Y503718D01*
X97847D01*
X101416Y504674D01*
X102673Y505400D01*
X141299Y466775D01*
X142601Y465904D01*
X144137Y465599D01*
X151628D01*
X151968Y464329D01*
X150147Y463278D01*
X148372Y461503D01*
X147118Y459329D01*
X146468Y456905D01*
Y454395D01*
X147118Y451971D01*
X148372Y449797D01*
X150147Y448022D01*
X151968Y446971D01*
X151628Y445701D01*
X123726D01*
X108350Y461077D01*
X109076Y462334D01*
X110032Y465903D01*
Y469597D01*
X109076Y473166D01*
X107228Y476366D01*
X104616Y478978D01*
X101416Y480826D01*
X97847Y481782D01*
X94153D01*
X90584Y480826D01*
X87384Y478978D01*
X84772Y476366D01*
X82924Y473166D01*
X81968Y469597D01*
Y465903D01*
X82924Y462334D01*
X84772Y459134D01*
X87384Y456522D01*
X90584Y454674D01*
X94153Y453718D01*
X97847D01*
X101416Y454674D01*
X102673Y455400D01*
X119225Y438849D01*
X120527Y437978D01*
X122063Y437673D01*
X148283D01*
X148769Y436500D01*
X148372Y436103D01*
X147118Y433929D01*
X146468Y431505D01*
Y428995D01*
X147118Y426571D01*
X148372Y424397D01*
X150147Y422622D01*
X152321Y421368D01*
X154745Y420718D01*
X157255D01*
X159679Y421368D01*
X161853Y422622D01*
X163627Y424397D01*
X164882Y426571D01*
X165532Y428995D01*
Y431505D01*
X164882Y433929D01*
X163627Y436103D01*
X163231Y436500D01*
X163717Y437673D01*
X193700D01*
X223218Y408156D01*
X222668Y406105D01*
Y403595D01*
X223318Y401171D01*
X224573Y398997D01*
X224969Y398601D01*
X224483Y397427D01*
X163717D01*
X163231Y398601D01*
X163627Y398997D01*
X164882Y401171D01*
X165532Y403595D01*
Y406105D01*
X164882Y408529D01*
X163627Y410703D01*
X161853Y412477D01*
X159679Y413732D01*
X157255Y414382D01*
X154745D01*
X152321Y413732D01*
X150147Y412477D01*
X148372Y410703D01*
X147118Y408529D01*
X146468Y406105D01*
Y403595D01*
X147118Y401171D01*
X148372Y398997D01*
X150147Y397223D01*
X150181Y397203D01*
X150342Y395644D01*
X119842Y365143D01*
X118972Y363841D01*
X118666Y362305D01*
Y316525D01*
X111205Y309064D01*
X110032Y309550D01*
Y331782D01*
X81968D01*
Y303718D01*
X104200D01*
X104686Y302545D01*
X88162Y286021D01*
X87291Y284718D01*
X86986Y283182D01*
Y206631D01*
X86356Y206462D01*
X83612Y204878D01*
X81372Y202638D01*
X79788Y199894D01*
X78968Y196834D01*
Y193666D01*
X79788Y190606D01*
X81372Y187862D01*
X83612Y185622D01*
X86356Y184038D01*
X89416Y183218D01*
X91205D01*
X91731Y181948D01*
X88162Y178379D01*
X87291Y177076D01*
X86986Y175540D01*
Y156631D01*
X86356Y156462D01*
X83612Y154878D01*
X81372Y152638D01*
X79788Y149894D01*
X78968Y146834D01*
Y143666D01*
X79788Y140606D01*
X81372Y137862D01*
X83612Y135622D01*
X86356Y134038D01*
X89416Y133218D01*
X92584D01*
X95644Y134038D01*
X98388Y135622D01*
X100628Y137862D01*
X102212Y140606D01*
X103032Y143666D01*
Y146834D01*
X102212Y149894D01*
X100628Y152638D01*
X98388Y154878D01*
X95644Y156462D01*
X95014Y156631D01*
Y173877D01*
X129378Y208241D01*
X130248Y209543D01*
X130553Y211079D01*
Y214156D01*
X141276Y224878D01*
X142449Y224392D01*
Y204387D01*
X142754Y202851D01*
X143625Y201549D01*
X148918Y196256D01*
X148368Y194205D01*
Y191695D01*
X149018Y189271D01*
X150273Y187097D01*
X152047Y185322D01*
X152081Y185303D01*
X152242Y183743D01*
X143625Y175126D01*
X142754Y173824D01*
X142449Y172287D01*
Y153587D01*
X142754Y152051D01*
X143625Y150749D01*
X148918Y145456D01*
X148368Y143405D01*
Y140895D01*
X149018Y138471D01*
X150273Y136297D01*
X152047Y134522D01*
X154221Y133268D01*
X156645Y132618D01*
X159155D01*
X161579Y133268D01*
X163753Y134522D01*
X165527Y136297D01*
X166782Y138471D01*
X167432Y140895D01*
Y143405D01*
X166782Y145829D01*
X165527Y148003D01*
X163753Y149777D01*
X161579Y151032D01*
X159155Y151682D01*
X156645D01*
X154594Y151132D01*
X150477Y155250D01*
Y159833D01*
X151650Y160319D01*
X152047Y159923D01*
X154221Y158668D01*
X156645Y158018D01*
X159155D01*
X161579Y158668D01*
X163753Y159923D01*
X165527Y161697D01*
X166589Y163536D01*
X194164D01*
X195700Y163841D01*
X197003Y164712D01*
X207264Y174973D01*
X226383D01*
X226869Y173800D01*
X226472Y173403D01*
X225218Y171229D01*
X224568Y168805D01*
Y166295D01*
X225218Y163871D01*
X226472Y161697D01*
X228247Y159923D01*
X230421Y158668D01*
X232845Y158018D01*
X235355D01*
X237779Y158668D01*
X239953Y159923D01*
X241728Y161697D01*
X242982Y163871D01*
X243632Y166295D01*
Y168805D01*
X242982Y171229D01*
X241728Y173403D01*
X241331Y173800D01*
X241817Y174973D01*
X306668D01*
X310436Y171205D01*
X309949Y170032D01*
X296218D01*
Y150468D01*
X315782D01*
Y152004D01*
X316955Y152490D01*
X377034Y92412D01*
X378336Y91541D01*
X379872Y91236D01*
X490677D01*
X491473Y89858D01*
X493108Y88223D01*
X495110Y87066D01*
X497344Y86468D01*
X499656D01*
X501890Y87066D01*
X503892Y88223D01*
X505527Y89858D01*
X506684Y91860D01*
X507282Y94094D01*
Y96406D01*
X506684Y98640D01*
X505527Y100642D01*
X503892Y102277D01*
X501890Y103434D01*
X499656Y104032D01*
X497344D01*
X495110Y103434D01*
X493108Y102277D01*
X491473Y100642D01*
X490677Y99264D01*
X381535D01*
X331504Y149295D01*
X331990Y150468D01*
X332688D01*
X335176Y151135D01*
X337406Y152423D01*
X339227Y154244D01*
X340515Y156474D01*
X341182Y158962D01*
Y161538D01*
X340515Y164026D01*
X339227Y166256D01*
X337406Y168078D01*
X335176Y169365D01*
X332688Y170032D01*
X330112D01*
X327624Y169365D01*
X325394Y168078D01*
X323573Y166256D01*
X322971Y165215D01*
X321701Y165555D01*
Y169631D01*
X321396Y171167D01*
X320525Y172469D01*
X311169Y181825D01*
X309867Y182696D01*
X308331Y183001D01*
X280049D01*
X279708Y184271D01*
X280318Y184623D01*
X281627Y185932D01*
X282553Y187536D01*
X283032Y189324D01*
Y191176D01*
X282941Y191514D01*
X299921Y208494D01*
X438258D01*
X439794Y208799D01*
X441096Y209670D01*
X474736Y243309D01*
X475074Y243218D01*
X476926D01*
X478714Y243697D01*
X480318Y244623D01*
X481627Y245932D01*
X482553Y247536D01*
X483032Y249324D01*
Y251176D01*
X482553Y252964D01*
X481627Y254568D01*
X480318Y255877D01*
X478714Y256803D01*
X476926Y257282D01*
X475074D01*
X473286Y256803D01*
X471682Y255877D01*
X470373Y254568D01*
X469447Y252964D01*
X468968Y251176D01*
Y249324D01*
X469059Y248986D01*
X436595Y216522D01*
X424608D01*
X424122Y217696D01*
X458307Y251880D01*
X459844Y251468D01*
X462156D01*
X464390Y252066D01*
X466392Y253223D01*
X468027Y254858D01*
X469184Y256860D01*
X469782Y259094D01*
Y261406D01*
X469184Y263640D01*
X468027Y265642D01*
X467017Y266653D01*
X467543Y267923D01*
X472650D01*
X491710Y248863D01*
Y247790D01*
X498460D01*
Y254540D01*
X497387D01*
X477151Y274775D01*
X475849Y275646D01*
X474313Y275951D01*
X211487D01*
X209951Y275646D01*
X208649Y274775D01*
X162263Y228390D01*
X160440D01*
Y220890D01*
X167940D01*
Y222713D01*
X213150Y267923D01*
X296218D01*
Y250468D01*
X315782D01*
Y267923D01*
X323580D01*
X324066Y266749D01*
X323573Y266256D01*
X322285Y264026D01*
X321618Y261538D01*
Y258962D01*
X322285Y256474D01*
X323573Y254244D01*
X325394Y252423D01*
X327624Y251135D01*
X330112Y250468D01*
X332688D01*
X335176Y251135D01*
X337406Y252423D01*
X339227Y254244D01*
X340515Y256474D01*
X341182Y258962D01*
Y261538D01*
X340515Y264026D01*
X339227Y266256D01*
X338734Y266749D01*
X339220Y267923D01*
X362218D01*
Y251468D01*
X379782D01*
Y267923D01*
X454457D01*
X454983Y266653D01*
X453973Y265642D01*
X452817Y263640D01*
X452218Y261406D01*
Y259094D01*
X452630Y257557D01*
X417437Y222364D01*
X242789D01*
X241728Y224203D01*
X239953Y225977D01*
X237779Y227232D01*
X235355Y227882D01*
X232845D01*
X230421Y227232D01*
X228247Y225977D01*
X226472Y224203D01*
X225218Y222029D01*
X224568Y219605D01*
Y217095D01*
X225117Y215044D01*
X195600Y185527D01*
X165617D01*
X165131Y186700D01*
X165527Y187097D01*
X166782Y189271D01*
X167432Y191695D01*
Y194205D01*
X166782Y196629D01*
X165527Y198803D01*
X163753Y200578D01*
X161579Y201832D01*
X159155Y202482D01*
X156645D01*
X154594Y201933D01*
X150477Y206050D01*
Y208310D01*
X155360D01*
Y218350D01*
Y228390D01*
X154708D01*
X154222Y229563D01*
X212458Y287799D01*
X360825D01*
X362361Y288104D01*
X363663Y288975D01*
X416612Y341923D01*
X493594D01*
X494080Y340750D01*
X493973Y340642D01*
X492817Y338640D01*
X492218Y336406D01*
Y334094D01*
X492817Y331860D01*
X493973Y329858D01*
X495608Y328223D01*
X497610Y327066D01*
X499844Y326468D01*
X502156D01*
X504390Y327066D01*
X506392Y328223D01*
X508027Y329858D01*
X509184Y331860D01*
X509782Y334094D01*
Y336406D01*
X509184Y338640D01*
X508027Y340642D01*
X507920Y340750D01*
X508406Y341923D01*
X533650D01*
X537630Y337943D01*
X537218Y336406D01*
Y334094D01*
X537817Y331860D01*
X538973Y329858D01*
X540608Y328223D01*
X542610Y327066D01*
X544844Y326468D01*
X547156D01*
X549390Y327066D01*
X551392Y328223D01*
X553027Y329858D01*
X554184Y331860D01*
X554782Y334094D01*
Y336406D01*
X554184Y338640D01*
X553027Y340642D01*
X551392Y342277D01*
X549390Y343433D01*
X547156Y344032D01*
X544844D01*
X543307Y343620D01*
X538151Y348775D01*
X536849Y349646D01*
X535313Y349951D01*
X418037D01*
X417551Y351124D01*
X543307Y476880D01*
X544844Y476468D01*
X547156D01*
X549390Y477066D01*
X551392Y478223D01*
X553027Y479858D01*
X554184Y481860D01*
X554782Y484094D01*
Y486406D01*
X554184Y488640D01*
X553027Y490642D01*
X551392Y492277D01*
X549390Y493433D01*
X547156Y494032D01*
X544844D01*
X542610Y493433D01*
X540608Y492277D01*
X538973Y490642D01*
X537817Y488640D01*
X537218Y486406D01*
Y484094D01*
X537630Y482557D01*
X387737Y332664D01*
X240889D01*
X239827Y334503D01*
X238053Y336278D01*
X235879Y337532D01*
X233455Y338182D01*
X230945D01*
X228521Y337532D01*
X226347Y336278D01*
X224573Y334503D01*
X223318Y332329D01*
X222668Y329905D01*
Y327395D01*
X223218Y325344D01*
X159240Y261367D01*
X158370Y260065D01*
X158064Y258528D01*
Y253021D01*
X123701Y218657D01*
X122831Y217355D01*
X122525Y215819D01*
Y212742D01*
X104302Y194519D01*
X103032Y195045D01*
Y196834D01*
X102212Y199894D01*
X100628Y202638D01*
X98388Y204878D01*
X95644Y206462D01*
X95014Y206631D01*
Y281520D01*
X125519Y312024D01*
X126389Y313326D01*
X126694Y314862D01*
Y360642D01*
X145295Y379242D01*
X146468Y378756D01*
Y378195D01*
X147118Y375771D01*
X148372Y373597D01*
X150147Y371823D01*
X152321Y370568D01*
X154745Y369918D01*
X157255D01*
X159679Y370568D01*
X161853Y371823D01*
X163627Y373597D01*
X164882Y375771D01*
X165532Y378195D01*
Y380705D01*
X164882Y383129D01*
X163627Y385303D01*
X161853Y387077D01*
X160032Y388129D01*
X160372Y389399D01*
X227828D01*
X228168Y388129D01*
X226347Y387077D01*
X224573Y385303D01*
X223318Y383129D01*
X222668Y380705D01*
Y378195D01*
X223318Y375771D01*
X224573Y373597D01*
X226347Y371823D01*
X228521Y370568D01*
X230945Y369918D01*
X233455D01*
X235879Y370568D01*
X238053Y371823D01*
X239827Y373597D01*
X241082Y375771D01*
X241732Y378195D01*
Y380705D01*
X241082Y383129D01*
X239827Y385303D01*
X238053Y387077D01*
X236232Y388129D01*
X236572Y389399D01*
X236937D01*
X238473Y389704D01*
X239776Y390575D01*
X246475Y397274D01*
X247346Y398577D01*
X247651Y400113D01*
Y444213D01*
X247346Y445749D01*
X246475Y447051D01*
X241182Y452344D01*
X241732Y454395D01*
Y456905D01*
X241182Y458956D01*
X263463Y481236D01*
X493177D01*
X493973Y479858D01*
X495608Y478223D01*
X497610Y477066D01*
X499844Y476468D01*
X502156D01*
X504390Y477066D01*
X506392Y478223D01*
X508027Y479858D01*
X509184Y481860D01*
X509782Y484094D01*
Y486406D01*
X509184Y488640D01*
X508027Y490642D01*
X506392Y492277D01*
X504390Y493433D01*
X502156Y494032D01*
X499844D01*
X497610Y493433D01*
X495608Y492277D01*
X493973Y490642D01*
X493177Y489264D01*
X261800D01*
X260264Y488959D01*
X258962Y488088D01*
X235506Y464632D01*
X233455Y465182D01*
X230945D01*
X228521Y464532D01*
X226347Y463278D01*
X224573Y461503D01*
X223318Y459329D01*
X222668Y456905D01*
Y454395D01*
X223318Y451971D01*
X224573Y449797D01*
X226347Y448022D01*
X228521Y446768D01*
X230945Y446118D01*
X233455D01*
X235506Y446668D01*
X239623Y442550D01*
Y437967D01*
X238449Y437481D01*
X238053Y437878D01*
X235879Y439132D01*
X233455Y439782D01*
X230945D01*
X228894Y439232D01*
X195675Y472451D01*
X194373Y473322D01*
X192837Y473627D01*
X163717D01*
X163231Y474800D01*
X163627Y475197D01*
X164882Y477371D01*
X165532Y479795D01*
Y482305D01*
X164882Y484729D01*
X163627Y486903D01*
X161853Y488677D01*
X159679Y489932D01*
X157255Y490582D01*
X154745D01*
X152321Y489932D01*
X150147Y488677D01*
X148372Y486903D01*
X147118Y484729D01*
X146468Y482305D01*
Y479795D01*
X147118Y477371D01*
X148372Y475197D01*
X148769Y474800D01*
X148283Y473627D01*
X145800D01*
X108350Y511077D01*
X109076Y512334D01*
X110032Y515903D01*
Y519597D01*
X109076Y523166D01*
X107228Y526366D01*
X104616Y528978D01*
X101416Y530826D01*
X97847Y531782D01*
D02*
G37*
G36*
Y431782D02*
X94153D01*
X90584Y430826D01*
X87384Y428978D01*
X84772Y426366D01*
X82924Y423166D01*
X81968Y419597D01*
Y415903D01*
X82924Y412334D01*
X84772Y409134D01*
X87384Y406522D01*
X90584Y404674D01*
X94153Y403718D01*
X97847D01*
X101416Y404674D01*
X104616Y406522D01*
X107228Y409134D01*
X109076Y412334D01*
X110032Y415903D01*
Y419597D01*
X109076Y423166D01*
X107228Y426366D01*
X104616Y428978D01*
X101416Y430826D01*
X97847Y431782D01*
D02*
G37*
G36*
X554782Y404032D02*
X537218D01*
Y386468D01*
X554782D01*
Y404032D01*
D02*
G37*
G36*
X509782D02*
X492218D01*
Y386468D01*
X509782D01*
Y404032D01*
D02*
G37*
G36*
X97847Y381782D02*
X94153D01*
X90584Y380826D01*
X87384Y378978D01*
X84772Y376366D01*
X82924Y373166D01*
X81968Y369597D01*
Y365903D01*
X82924Y362334D01*
X84772Y359134D01*
X87384Y356522D01*
X90584Y354674D01*
X94153Y353718D01*
X97847D01*
X101416Y354674D01*
X104616Y356522D01*
X107228Y359134D01*
X109076Y362334D01*
X110032Y365903D01*
Y369597D01*
X109076Y373166D01*
X107228Y376366D01*
X104616Y378978D01*
X101416Y380826D01*
X97847Y381782D01*
D02*
G37*
G36*
X462156Y369032D02*
X459844D01*
X457610Y368433D01*
X455608Y367277D01*
X453973Y365642D01*
X452817Y363640D01*
X452218Y361406D01*
Y359094D01*
X452817Y356860D01*
X453973Y354858D01*
X455608Y353223D01*
X457610Y352066D01*
X459844Y351468D01*
X462156D01*
X464390Y352066D01*
X466392Y353223D01*
X468027Y354858D01*
X469184Y356860D01*
X469782Y359094D01*
Y361406D01*
X469184Y363640D01*
X468027Y365642D01*
X466392Y367277D01*
X464390Y368433D01*
X462156Y369032D01*
D02*
G37*
G36*
X379782D02*
X362218D01*
Y351468D01*
X379782D01*
Y369032D01*
D02*
G37*
G36*
X332688Y370032D02*
X330112D01*
X327624Y369365D01*
X325394Y368078D01*
X323573Y366256D01*
X322285Y364026D01*
X321618Y361538D01*
Y358962D01*
X322285Y356474D01*
X323573Y354244D01*
X325394Y352422D01*
X327624Y351135D01*
X330112Y350468D01*
X332688D01*
X335176Y351135D01*
X337406Y352422D01*
X339227Y354244D01*
X340515Y356474D01*
X341182Y358962D01*
Y361538D01*
X340515Y364026D01*
X339227Y366256D01*
X337406Y368078D01*
X335176Y369365D01*
X332688Y370032D01*
D02*
G37*
G36*
X315782D02*
X296218D01*
Y350468D01*
X315782D01*
Y370032D01*
D02*
G37*
G36*
X233455Y363582D02*
X230945D01*
X228521Y362932D01*
X226347Y361678D01*
X224573Y359903D01*
X223318Y357729D01*
X222668Y355305D01*
Y352795D01*
X223318Y350371D01*
X224573Y348197D01*
X226347Y346423D01*
X228521Y345168D01*
X230945Y344518D01*
X233455D01*
X235879Y345168D01*
X238053Y346423D01*
X239827Y348197D01*
X241082Y350371D01*
X241732Y352795D01*
Y355305D01*
X241082Y357729D01*
X239827Y359903D01*
X238053Y361678D01*
X235879Y362932D01*
X233455Y363582D01*
D02*
G37*
G36*
X157255D02*
X154745D01*
X152321Y362932D01*
X150147Y361678D01*
X148372Y359903D01*
X147118Y357729D01*
X146468Y355305D01*
Y352795D01*
X147118Y350371D01*
X148372Y348197D01*
X150147Y346423D01*
X152321Y345168D01*
X154745Y344518D01*
X157255D01*
X159679Y345168D01*
X161853Y346423D01*
X163627Y348197D01*
X164882Y350371D01*
X165532Y352795D01*
Y355305D01*
X164882Y357729D01*
X163627Y359903D01*
X161853Y361678D01*
X159679Y362932D01*
X157255Y363582D01*
D02*
G37*
G36*
X727584Y357282D02*
X724416D01*
X721356Y356462D01*
X718612Y354878D01*
X716372Y352638D01*
X714788Y349894D01*
X713968Y346834D01*
Y343666D01*
X714788Y340606D01*
X716372Y337862D01*
X718612Y335622D01*
X721356Y334038D01*
X724416Y333218D01*
X727584D01*
X730644Y334038D01*
X733388Y335622D01*
X735628Y337862D01*
X737212Y340606D01*
X738032Y343666D01*
Y346834D01*
X737212Y349894D01*
X735628Y352638D01*
X733388Y354878D01*
X730644Y356462D01*
X727584Y357282D01*
D02*
G37*
G36*
X607584D02*
X604416D01*
X601356Y356462D01*
X598612Y354878D01*
X596372Y352638D01*
X594788Y349894D01*
X593968Y346834D01*
Y343666D01*
X594788Y340606D01*
X596372Y337862D01*
X598612Y335622D01*
X601356Y334038D01*
X604416Y333218D01*
X607584D01*
X610644Y334038D01*
X613388Y335622D01*
X615628Y337862D01*
X617212Y340606D01*
X618032Y343666D01*
Y346834D01*
X617212Y349894D01*
X615628Y352638D01*
X613388Y354878D01*
X610644Y356462D01*
X607584Y357282D01*
D02*
G37*
G36*
X157255Y338182D02*
X154745D01*
X152321Y337532D01*
X150147Y336278D01*
X148372Y334503D01*
X147118Y332329D01*
X146468Y329905D01*
Y327395D01*
X147118Y324971D01*
X148372Y322797D01*
X150147Y321022D01*
X152321Y319768D01*
X154745Y319118D01*
X157255D01*
X159679Y319768D01*
X161853Y321022D01*
X163627Y322797D01*
X164882Y324971D01*
X165532Y327395D01*
Y329905D01*
X164882Y332329D01*
X163627Y334503D01*
X161853Y336278D01*
X159679Y337532D01*
X157255Y338182D01*
D02*
G37*
G36*
Y312782D02*
X154745D01*
X152321Y312132D01*
X150147Y310877D01*
X148372Y309103D01*
X147118Y306929D01*
X146468Y304505D01*
Y301995D01*
X147118Y299571D01*
X148372Y297397D01*
X150147Y295623D01*
X152321Y294368D01*
X154745Y293718D01*
X157255D01*
X159679Y294368D01*
X161853Y295623D01*
X163627Y297397D01*
X164882Y299571D01*
X165532Y301995D01*
Y304505D01*
X164882Y306929D01*
X163627Y309103D01*
X161853Y310877D01*
X159679Y312132D01*
X157255Y312782D01*
D02*
G37*
G36*
X510290Y254540D02*
X503540D01*
Y247790D01*
X510290D01*
Y254540D01*
D02*
G37*
G36*
X555290D02*
X548540D01*
Y247790D01*
X555290D01*
Y254540D01*
D02*
G37*
G36*
X543460D02*
X536710D01*
Y247790D01*
X543460D01*
Y254540D01*
D02*
G37*
G36*
X555290Y242710D02*
X548540D01*
Y235960D01*
X555290D01*
Y242710D01*
D02*
G37*
G36*
X543460D02*
X536710D01*
Y235960D01*
X543460D01*
Y242710D01*
D02*
G37*
G36*
X510290Y242710D02*
X503540D01*
Y235960D01*
X510290D01*
Y242710D01*
D02*
G37*
G36*
X498460D02*
X491710D01*
Y235960D01*
X498460D01*
Y242710D01*
D02*
G37*
G36*
X167940Y215810D02*
X160440D01*
Y208310D01*
X167940D01*
Y215810D01*
D02*
G37*
G36*
X611532Y207032D02*
X593468D01*
Y188968D01*
X611532D01*
Y207032D01*
D02*
G37*
G36*
X555290Y194540D02*
X548540D01*
Y187790D01*
X555290D01*
Y194540D01*
D02*
G37*
G36*
X543460D02*
X536710D01*
Y187790D01*
X543460D01*
Y194540D01*
D02*
G37*
G36*
X507282Y194032D02*
X489718D01*
Y176468D01*
X507282D01*
Y194032D01*
D02*
G37*
G36*
X543460Y182710D02*
X536710D01*
Y175960D01*
X543460D01*
Y182710D01*
D02*
G37*
G36*
X697551Y192032D02*
X694449D01*
X691452Y191229D01*
X688766Y189678D01*
X686572Y187484D01*
X685021Y184798D01*
X684218Y181801D01*
Y178699D01*
X685021Y175702D01*
X686572Y173016D01*
X688766Y170822D01*
X691452Y169271D01*
X694449Y168468D01*
X697551D01*
X700548Y169271D01*
X703234Y170822D01*
X705428Y173016D01*
X706979Y175702D01*
X707782Y178699D01*
Y181801D01*
X706979Y184798D01*
X705428Y187484D01*
X703234Y189678D01*
X700548Y191229D01*
X697551Y192032D01*
D02*
G37*
G36*
X603689Y181032D02*
X601311D01*
X599014Y180417D01*
X596954Y179227D01*
X595273Y177546D01*
X594084Y175486D01*
X593468Y173189D01*
Y170811D01*
X594084Y168514D01*
X595273Y166454D01*
X596954Y164773D01*
X599014Y163584D01*
X601311Y162968D01*
X603689D01*
X605986Y163584D01*
X608046Y164773D01*
X609727Y166454D01*
X610916Y168514D01*
X611532Y170811D01*
Y173189D01*
X610916Y175486D01*
X609727Y177546D01*
X608046Y179227D01*
X605986Y180417D01*
X603689Y181032D01*
D02*
G37*
G36*
X462156Y169032D02*
X459844D01*
X457610Y168433D01*
X455608Y167277D01*
X453973Y165642D01*
X452817Y163640D01*
X452218Y161406D01*
Y159094D01*
X452817Y156860D01*
X453973Y154858D01*
X455608Y153223D01*
X457610Y152066D01*
X459844Y151468D01*
X462156D01*
X464390Y152066D01*
X466392Y153223D01*
X468027Y154858D01*
X469184Y156860D01*
X469782Y159094D01*
Y161406D01*
X469184Y163640D01*
X468027Y165642D01*
X466392Y167277D01*
X464390Y168433D01*
X462156Y169032D01*
D02*
G37*
G36*
X379782D02*
X362218D01*
Y151468D01*
X379782D01*
Y169032D01*
D02*
G37*
G36*
X605040Y155196D02*
Y148540D01*
X611696D01*
X611390Y149682D01*
X610134Y151858D01*
X608358Y153634D01*
X606182Y154890D01*
X605040Y155196D01*
D02*
G37*
G36*
X611696Y143460D02*
X605040D01*
Y136804D01*
X606182Y137110D01*
X608358Y138366D01*
X610134Y140142D01*
X611390Y142318D01*
X611696Y143460D01*
D02*
G37*
G36*
X555290Y182710D02*
X548540D01*
Y175960D01*
X549613D01*
X582412Y143162D01*
X583714Y142291D01*
X585250Y141986D01*
X593802D01*
X594866Y140142D01*
X596642Y138366D01*
X598818Y137110D01*
X599960Y136804D01*
Y146000D01*
Y155196D01*
X598818Y154890D01*
X596642Y153634D01*
X594866Y151858D01*
X593802Y150014D01*
X586913D01*
X555290Y181637D01*
Y182710D01*
D02*
G37*
G36*
X235355Y151682D02*
X232845D01*
X230421Y151032D01*
X228247Y149777D01*
X226472Y148003D01*
X225218Y145829D01*
X224568Y143405D01*
Y140895D01*
X225218Y138471D01*
X226472Y136297D01*
X228247Y134522D01*
X230421Y133268D01*
X232845Y132618D01*
X235355D01*
X237779Y133268D01*
X239953Y134522D01*
X241728Y136297D01*
X242982Y138471D01*
X243632Y140895D01*
Y143405D01*
X242982Y145829D01*
X241728Y148003D01*
X239953Y149777D01*
X237779Y151032D01*
X235355Y151682D01*
D02*
G37*
G36*
X707782Y142032D02*
X684218D01*
Y118468D01*
X707782D01*
Y142032D01*
D02*
G37*
G36*
X184790Y99040D02*
X178540D01*
Y92790D01*
X184790D01*
Y99040D01*
D02*
G37*
G36*
X173460D02*
X167210D01*
Y92790D01*
X173460D01*
Y99040D01*
D02*
G37*
G36*
X547156Y104032D02*
X544844D01*
X542610Y103434D01*
X540608Y102277D01*
X538973Y100642D01*
X537817Y98640D01*
X537218Y96406D01*
Y94094D01*
X537817Y91860D01*
X538973Y89858D01*
X540608Y88223D01*
X542610Y87066D01*
X544844Y86468D01*
X547156D01*
X549390Y87066D01*
X551392Y88223D01*
X553027Y89858D01*
X554184Y91860D01*
X554782Y94094D01*
Y96406D01*
X554184Y98640D01*
X553027Y100642D01*
X551392Y102277D01*
X549390Y103434D01*
X547156Y104032D01*
D02*
G37*
G36*
X92584Y107282D02*
X89416D01*
X86356Y106462D01*
X83612Y104878D01*
X81372Y102638D01*
X79788Y99894D01*
X78968Y96834D01*
Y93666D01*
X79788Y90606D01*
X81372Y87862D01*
X83612Y85622D01*
X86356Y84038D01*
X89416Y83218D01*
X92584D01*
X95644Y84038D01*
X98388Y85622D01*
X100628Y87862D01*
X102212Y90606D01*
X103032Y93666D01*
Y96834D01*
X102212Y99894D01*
X100628Y102638D01*
X98388Y104878D01*
X95644Y106462D01*
X92584Y107282D01*
D02*
G37*
G36*
X202090Y98532D02*
X199910D01*
X197803Y97968D01*
X195915Y96877D01*
X194373Y95335D01*
X193282Y93447D01*
X192718Y91340D01*
Y89160D01*
X193282Y87053D01*
X194373Y85165D01*
X195915Y83623D01*
X197803Y82532D01*
X199910Y81968D01*
X202090D01*
X204197Y82532D01*
X206085Y83623D01*
X207627Y85165D01*
X208718Y87053D01*
X209282Y89160D01*
Y91340D01*
X208718Y93447D01*
X207627Y95335D01*
X206085Y96877D01*
X204197Y97968D01*
X202090Y98532D01*
D02*
G37*
G36*
X184790Y87710D02*
X178540D01*
Y81460D01*
X184790D01*
Y87710D01*
D02*
G37*
G36*
X173460D02*
X167210D01*
Y81460D01*
X173460D01*
Y87710D01*
D02*
G37*
G36*
X462156Y69032D02*
X459844D01*
X457610Y68433D01*
X455608Y67277D01*
X453973Y65642D01*
X452817Y63640D01*
X452218Y61406D01*
Y59094D01*
X452817Y56860D01*
X453973Y54858D01*
X455608Y53223D01*
X457610Y52066D01*
X459844Y51468D01*
X462156D01*
X464390Y52066D01*
X466392Y53223D01*
X468027Y54858D01*
X469184Y56860D01*
X469782Y59094D01*
Y61406D01*
X469184Y63640D01*
X468027Y65642D01*
X466392Y67277D01*
X464390Y68433D01*
X462156Y69032D01*
D02*
G37*
G36*
X379782D02*
X362218D01*
Y51468D01*
X379782D01*
Y69032D01*
D02*
G37*
G36*
X332688Y70032D02*
X330112D01*
X327624Y69365D01*
X325394Y68078D01*
X323573Y66256D01*
X322285Y64026D01*
X321618Y61538D01*
Y58962D01*
X322285Y56474D01*
X323573Y54244D01*
X325394Y52422D01*
X327624Y51135D01*
X330112Y50468D01*
X332688D01*
X335176Y51135D01*
X337406Y52422D01*
X339227Y54244D01*
X340515Y56474D01*
X341182Y58962D01*
Y61538D01*
X340515Y64026D01*
X339227Y66256D01*
X337406Y68078D01*
X335176Y69365D01*
X332688Y70032D01*
D02*
G37*
G36*
X315782D02*
X296218D01*
Y50468D01*
X315782D01*
Y70032D01*
D02*
G37*
%LPD*%
D31*
X606000Y345250D02*
D03*
X726000D02*
D03*
Y467250D02*
D03*
X606000D02*
D03*
X91000Y95250D02*
D03*
Y145250D02*
D03*
Y195250D02*
D03*
D32*
X666000Y487250D02*
D03*
D33*
X166000Y644850D02*
D03*
Y670250D02*
D03*
X506000Y674630D02*
D03*
D34*
Y565870D02*
D03*
D43*
X546000Y185250D02*
X585250Y146000D01*
X602500D01*
X438258Y212508D02*
X476000Y250250D01*
X474313Y271937D02*
X501000Y245250D01*
X211487Y271937D02*
X474313D01*
X276000Y190250D02*
X298258Y212508D01*
X438258D01*
X234100Y218350D02*
X419100D01*
X197263Y181513D02*
X234100Y218350D01*
X419100D02*
X461000Y260250D01*
X91000Y175540D02*
X126539Y211079D01*
Y215819D01*
X91000Y145250D02*
Y175540D01*
X126539Y215819D02*
X162078Y251358D01*
Y258528D01*
X232200Y328650D01*
X210795Y291813D02*
X360825D01*
X146463Y227481D02*
X210795Y291813D01*
X360825D02*
X414949Y345937D01*
X91000Y195250D02*
Y283182D01*
X122680Y314862D01*
X153789Y393413D02*
X236937D01*
X122680Y362305D02*
X153789Y393413D01*
X122680Y314862D02*
Y362305D01*
X146463Y204387D02*
Y227481D01*
X243637Y400113D02*
Y444213D01*
X195363Y441687D02*
X232200Y404850D01*
X122063Y441687D02*
X195363D01*
X96000Y467750D02*
X122063Y441687D01*
X236937Y393413D02*
X243637Y400113D01*
X96000Y517750D02*
X144137Y469613D01*
X192837D01*
X232200Y455650D02*
X243637Y444213D01*
X192837Y469613D02*
X232200Y430250D01*
Y455650D02*
X261800Y485250D01*
X157900Y218350D02*
X211487Y271937D01*
X205601Y178987D02*
X308331D01*
X194164Y167550D02*
X205601Y178987D01*
X308331D02*
X317687Y169631D01*
Y157435D02*
Y169631D01*
Y157435D02*
X379872Y95250D01*
X498500D01*
X535313Y345937D02*
X546000Y335250D01*
X414949Y345937D02*
X535313D01*
X389400Y328650D02*
X546000Y485250D01*
X232200Y328650D02*
X389400D01*
X146463Y204387D02*
X157900Y192950D01*
X155689Y181513D02*
X197263D01*
X146463Y172287D02*
X155689Y181513D01*
X146463Y153587D02*
Y172287D01*
Y153587D02*
X157900Y142150D01*
X154063Y557427D02*
Y658313D01*
X230440Y481050D02*
X232200D01*
X154063Y557427D02*
X230440Y481050D01*
X157900Y167550D02*
X194164D01*
X261800Y485250D02*
X501000D01*
X216800Y560250D02*
Y625650D01*
X236000Y644850D01*
X154063Y658313D02*
X166000Y670250D01*
X176437Y549813D02*
X246520D01*
X166000Y560250D02*
X176437Y549813D01*
X246520D02*
X268644Y571937D01*
X449313D02*
X461000Y560250D01*
X268644Y571937D02*
X449313D01*
D44*
X602500Y198000D02*
D03*
D45*
Y146000D02*
D03*
Y172000D02*
D03*
D46*
X201000Y90250D02*
D03*
D47*
X176000D02*
D03*
D48*
X232200Y303250D02*
D03*
X157900Y218350D02*
D03*
D49*
X232200Y328650D02*
D03*
Y354050D02*
D03*
Y379450D02*
D03*
Y404850D02*
D03*
Y430250D02*
D03*
Y455650D02*
D03*
Y481050D02*
D03*
X156000Y303250D02*
D03*
Y328650D02*
D03*
Y354050D02*
D03*
Y379450D02*
D03*
Y404850D02*
D03*
Y430250D02*
D03*
Y455650D02*
D03*
Y481050D02*
D03*
X157900Y192950D02*
D03*
Y167550D02*
D03*
Y142150D02*
D03*
X234100Y218350D02*
D03*
Y192950D02*
D03*
Y167550D02*
D03*
Y142150D02*
D03*
D50*
X371000Y360250D02*
D03*
Y660250D02*
D03*
Y560250D02*
D03*
Y460250D02*
D03*
Y260250D02*
D03*
Y160250D02*
D03*
Y60250D02*
D03*
D51*
X461000Y360250D02*
D03*
X566000Y655250D02*
D03*
X546000Y485250D02*
D03*
X501000D02*
D03*
X498500Y95250D02*
D03*
X546000D02*
D03*
Y335250D02*
D03*
X501000D02*
D03*
X461000Y660250D02*
D03*
Y560250D02*
D03*
Y460250D02*
D03*
Y260250D02*
D03*
Y160250D02*
D03*
Y60250D02*
D03*
D52*
X166000Y695650D02*
D03*
D53*
X236000Y644850D02*
D03*
D54*
Y695650D02*
D03*
X166000Y560250D02*
D03*
D55*
X566000Y565250D02*
D03*
X546000Y395250D02*
D03*
X501000D02*
D03*
X498500Y185250D02*
D03*
X546000D02*
D03*
Y245250D02*
D03*
X501000D02*
D03*
D56*
X216800Y560250D02*
D03*
D57*
X90500Y695250D02*
D03*
X696000Y180250D02*
D03*
D58*
X90500Y645250D02*
D03*
X696000Y130250D02*
D03*
D59*
X636000Y610250D02*
D03*
X331400Y660250D02*
D03*
Y560250D02*
D03*
X331000Y460250D02*
D03*
X331400Y360250D02*
D03*
Y260250D02*
D03*
Y160250D02*
D03*
Y60250D02*
D03*
D60*
X636000Y635650D02*
D03*
D61*
X306000Y660250D02*
D03*
Y560250D02*
D03*
X305600Y460250D02*
D03*
X306000Y360250D02*
D03*
Y260250D02*
D03*
Y160250D02*
D03*
Y60250D02*
D03*
D62*
X96000Y317750D02*
D03*
D63*
Y367750D02*
D03*
Y417750D02*
D03*
Y467750D02*
D03*
Y517750D02*
D03*
D64*
X780000Y20000D02*
D03*
X780000Y760000D02*
D03*
X20000Y20000D02*
D03*
Y760000D02*
D03*
D65*
X476000Y250250D02*
D03*
X276000Y190250D02*
D03*
M02*
