G04*
G04 #@! TF.GenerationSoftware,Altium Limited,Altium Designer,22.9.1 (49)*
G04*
G04 Layer_Color=16711935*
%FSLAX44Y44*%
%MOMM*%
G71*
G04*
G04 #@! TF.SameCoordinates,7A9AD83F-BE66-4558-94AD-99BB97DC6B92*
G04*
G04*
G04 #@! TF.FilePolarity,Positive*
G04*
G01*
G75*
%ADD66C,0.1500*%
D66*
X223310Y385234D02*
Y395231D01*
X221311Y397230D01*
X217312D01*
X215313Y395231D01*
Y385234D01*
X211314D02*
Y397230D01*
X203316D01*
X199318D02*
Y385234D01*
X191320Y397230D01*
Y385234D01*
X179324Y397230D02*
X187322D01*
X179324Y389233D01*
Y387233D01*
X181324Y385234D01*
X185322D01*
X187322Y387233D01*
X175326D02*
X173326Y385234D01*
X169328D01*
X167328Y387233D01*
Y395231D01*
X169328Y397230D01*
X173326D01*
X175326Y395231D01*
Y387233D01*
X163329D02*
X161330Y385234D01*
X157331D01*
X155332Y387233D01*
Y395231D01*
X157331Y397230D01*
X161330D01*
X163329Y395231D01*
Y387233D01*
X151333D02*
X149334Y385234D01*
X145335D01*
X143336Y387233D01*
Y389233D01*
X145335Y391232D01*
X147335D01*
X145335D01*
X143336Y393231D01*
Y395231D01*
X145335Y397230D01*
X149334D01*
X151333Y395231D01*
M02*
