G04*
G04 #@! TF.GenerationSoftware,Altium Limited,Altium Designer,22.9.1 (49)*
G04*
G04 Layer_Color=16711935*
%FSLAX44Y44*%
%MOMM*%
G71*
G04*
G04 #@! TF.SameCoordinates,7A9AD83F-BE66-4558-94AD-99BB97DC6B92*
G04*
G04*
G04 #@! TF.FilePolarity,Positive*
G04*
G01*
G75*
%ADD67C,0.1000*%
D67*
X589154Y152657D02*
G03*
X589154Y191343I13346J19342D01*
G01*
X223100Y302650D02*
G03*
X223100Y302650I-5000J0D01*
G01*
X87501Y649750D02*
G03*
X87501Y640750I0J-4500D01*
G01*
X87501Y699750D02*
G03*
X87501Y690750I0J-4500D01*
G01*
X665225Y622950D02*
G03*
X665225Y622950I-29225J0D01*
G01*
X177000Y222000D02*
G03*
X177000Y222000I-5000J0D01*
G01*
X347925Y660250D02*
G03*
X347925Y660250I-29225J0D01*
G01*
X693000Y134750D02*
G03*
X693000Y125750I0J-4500D01*
G01*
X693001Y184750D02*
G03*
X693001Y175750I0J-4500D01*
G01*
X347925Y560250D02*
G03*
X347925Y560250I-29225J0D01*
G01*
X347525Y460250D02*
G03*
X347525Y460250I-29225J0D01*
G01*
X347925Y360250D02*
G03*
X347925Y360250I-29225J0D01*
G01*
Y260250D02*
G03*
X347925Y260250I-29225J0D01*
G01*
Y160250D02*
G03*
X347925Y160250I-29225J0D01*
G01*
Y60250D02*
G03*
X347925Y60250I-29225J0D01*
G01*
X589154Y152657D02*
Y191343D01*
X168500Y77250D02*
Y103250D01*
X208500Y77250D02*
Y103250D01*
X168500Y77250D02*
X208500D01*
X168500Y103250D02*
X208500D01*
X227100Y293650D02*
Y490650D01*
X161100Y293650D02*
Y490650D01*
Y293650D02*
X227100D01*
X161100Y490650D02*
X227100D01*
X384500Y348250D02*
Y372250D01*
X447500D01*
X384500Y348250D02*
X447500D01*
Y372250D01*
X179100Y619250D02*
Y721250D01*
X145600Y619250D02*
X192600D01*
X145600Y721250D02*
X192600D01*
Y619250D02*
Y721250D01*
X145600Y619250D02*
Y721250D01*
X215650Y634700D02*
Y705800D01*
X256350Y634700D02*
Y705800D01*
X215650Y634700D02*
X256350D01*
X215650Y705800D02*
X256350D01*
X554000Y578750D02*
X578000D01*
X554000D02*
Y641750D01*
X578000Y578750D02*
Y641750D01*
X554000D02*
X578000D01*
X155850Y539900D02*
X226950D01*
X155850Y580600D02*
X226950D01*
Y539900D02*
Y580600D01*
X155850Y539900D02*
Y580600D01*
X87498Y640700D02*
X123501Y638750D01*
X87498Y649800D02*
X123501Y651750D01*
X87498Y699800D02*
X123501Y701750D01*
X87498Y690700D02*
X123501Y688750D01*
X123501Y620251D02*
X123501Y720252D01*
X98751Y614251D02*
X107251D01*
X98751D02*
X99501Y620251D01*
X106501D02*
X107251Y614251D01*
X106501Y620251D02*
X123501D01*
X48501D02*
Y720252D01*
Y620251D02*
X99501D01*
X57501Y726252D02*
X67001D01*
X57501D02*
X58001Y720252D01*
X66501D02*
X67001Y726252D01*
X48501Y720252D02*
X58001D01*
X66501D02*
X123501D01*
X534000Y408750D02*
X558000D01*
X534000D02*
Y471750D01*
X558000Y408750D02*
Y471750D01*
X534000D02*
X558000D01*
X489000Y408750D02*
X513000D01*
X489000D02*
Y471750D01*
X513000Y408750D02*
Y471750D01*
X489000D02*
X513000D01*
X163000Y129500D02*
Y231000D01*
X229000Y129500D02*
Y231000D01*
X163000D02*
X229000D01*
X163000Y129500D02*
X229000D01*
X486500Y171750D02*
X510500D01*
Y108750D02*
Y171750D01*
X486500Y108750D02*
Y171750D01*
Y108750D02*
X510500D01*
X534000Y171750D02*
X558000D01*
Y108750D02*
Y171750D01*
X534000Y108750D02*
Y171750D01*
Y108750D02*
X558000D01*
X534000Y258750D02*
X558000D01*
X534000D02*
Y321750D01*
X558000Y258750D02*
Y321750D01*
X534000D02*
X558000D01*
X489000Y258750D02*
X513000D01*
X489000D02*
Y321750D01*
X513000Y258750D02*
Y321750D01*
X489000D02*
X513000D01*
X384500Y648250D02*
Y672250D01*
X447500D01*
X384500Y648250D02*
X447500D01*
Y672250D01*
X384500Y548250D02*
Y572250D01*
X447500D01*
X384500Y548250D02*
X447500D01*
Y572250D01*
X692998Y125700D02*
X729000Y123750D01*
X692998Y134800D02*
X729000Y136750D01*
X692998Y184800D02*
X729001Y186750D01*
X692998Y175700D02*
X729001Y173750D01*
X729000Y105251D02*
X729001Y205252D01*
X704250Y99251D02*
X712750D01*
X704250D02*
X705001Y105251D01*
X712001D02*
X712750Y99251D01*
X712001Y105251D02*
X729000D01*
X654001D02*
Y205252D01*
Y105251D02*
X705001D01*
X663001Y211252D02*
X672501D01*
X663001D02*
X663501Y205252D01*
X672001D02*
X672501Y211252D01*
X654001Y205252D02*
X663501D01*
X672001D02*
X729001D01*
X384500Y448250D02*
Y472250D01*
X447500D01*
X384500Y448250D02*
X447500D01*
Y472250D01*
X384500Y248250D02*
Y272250D01*
X447500D01*
X384500Y248250D02*
X447500D01*
Y272250D01*
X49000Y552750D02*
X134000D01*
X49000Y282750D02*
Y552750D01*
Y282750D02*
X134000D01*
Y552750D01*
X384500Y148250D02*
Y172250D01*
X447500D01*
X384500Y148250D02*
X447500D01*
Y172250D01*
X384500Y48250D02*
Y72250D01*
X447500D01*
X384500Y48250D02*
X447500D01*
Y72250D01*
M02*
